<svg width="46" height="46" viewBox="0 0 46 46" fill="none" xmlns="http://www.w3.org/2000/svg">
<path d="M23 30.6667C22.5522 30.6675 22.1182 30.5116 21.7733 30.2258L10.2733 20.6425C9.88192 20.3172 9.63577 19.8497 9.58905 19.3429C9.54232 18.836 9.69884 18.3314 10.0242 17.94C10.3495 17.5486 10.817 17.3024 11.3238 17.2557C11.8306 17.209 12.3353 17.3655 12.7267 17.6908L23 26.2775L33.2733 17.9975C33.4694 17.8383 33.695 17.7194 33.9371 17.6477C34.1793 17.5759 34.4332 17.5527 34.6844 17.5794C34.9355 17.6062 35.1789 17.6823 35.4005 17.8033C35.6221 17.9244 35.8177 18.0881 35.9758 18.285C36.1514 18.4821 36.2843 18.7133 36.3663 18.9641C36.4483 19.215 36.4777 19.48 36.4525 19.7427C36.4273 20.0054 36.3481 20.2601 36.2199 20.4908C36.0917 20.7215 35.9173 20.9232 35.7075 21.0833L24.2075 30.3408C23.8528 30.5814 23.4276 30.6961 23 30.6667V30.6667Z" fill="white"/>
</svg>
