<svg width="180" height="20" viewBox="0 0 180 20" fill="none" xmlns="http://www.w3.org/2000/svg">
<path d="M13.1926 12.0213C13.1926 12.1956 13.1839 12.3742 13.1665 12.5571C13.1578 12.7314 13.1316 12.9056 13.0881 13.0799C13.0532 13.228 13.0053 13.3674 12.9443 13.4981C12.892 13.6201 12.8572 13.7551 12.8398 13.9032C12.8223 13.9903 12.8049 14.0862 12.7875 14.1907C12.7701 14.2866 12.7047 14.3345 12.5915 14.3345L12.4869 14.3214C12.3475 14.3214 12.243 14.378 12.1733 14.4913C12.1036 14.5958 12.0469 14.7265 12.0034 14.8834C11.9685 15.0315 11.938 15.1839 11.9119 15.3408C11.8945 15.4976 11.8727 15.6239 11.8465 15.7198C11.8204 15.8156 11.803 15.9027 11.7943 15.9811C11.7943 16.0508 11.7899 16.1162 11.7812 16.1772C11.7812 16.2294 11.7638 16.2861 11.7289 16.3471C11.6941 16.408 11.6331 16.4734 11.546 16.5431C11.4066 16.6476 11.2715 16.7478 11.1408 16.8437C11.0101 16.9395 10.8925 17.0528 10.788 17.1835C10.7096 17.2793 10.6573 17.3621 10.6311 17.4318C10.605 17.5015 10.5789 17.5668 10.5527 17.6278C10.5266 17.6888 10.483 17.7454 10.422 17.7977C10.3698 17.8412 10.2783 17.8848 10.1476 17.9284C9.94722 17.9981 9.75554 18.0765 9.57258 18.1636C9.38962 18.2507 9.2023 18.3291 9.01063 18.3988C8.7841 18.486 8.57065 18.5862 8.37026 18.6994C8.16987 18.804 7.96513 18.9042 7.75603 19C7.54693 19.0958 7.32912 19.1742 7.1026 19.2352C6.88478 19.3049 6.64955 19.3398 6.39689 19.3398C6.17036 19.3398 5.94384 19.3049 5.71731 19.2352C5.4995 19.1655 5.29476 19.0697 5.10308 18.9477C4.92012 18.9303 4.78072 18.865 4.68489 18.7517C4.58905 18.6384 4.51064 18.5034 4.44965 18.3466C4.39737 18.2246 4.3451 18.1375 4.29283 18.0852C4.24926 18.0329 4.19699 17.9981 4.136 17.9806C4.08373 17.9545 4.02274 17.9327 3.95304 17.9153C3.88334 17.8979 3.80057 17.8587 3.70473 17.7977C3.31267 17.545 2.95546 17.2314 2.6331 16.8567C2.31074 16.4734 2.01016 16.09 1.73136 15.7067C1.67037 15.6196 1.62245 15.5194 1.5876 15.4061C1.56147 15.2841 1.53533 15.1665 1.50919 15.0533C1.48305 14.9313 1.45256 14.818 1.41771 14.7135C1.39157 14.6002 1.34801 14.5131 1.28702 14.4521C1.17376 14.3388 1.07357 14.2778 0.986443 14.2691C0.899318 14.2604 0.825262 14.243 0.764275 14.2169C0.712 14.182 0.668438 14.1079 0.633588 13.9947C0.607451 13.8727 0.594382 13.6505 0.594382 13.3282C0.594382 13.1278 0.576957 12.9187 0.542107 12.7009C0.507257 12.4831 0.463695 12.2609 0.41142 12.0344C0.367858 11.7991 0.328652 11.5639 0.293802 11.3287C0.258952 11.0847 0.241527 10.8451 0.241527 10.6099C0.241527 10.3572 0.254596 10.1046 0.280733 9.85191C0.315583 9.59925 0.354789 9.34658 0.398351 9.09392C0.441914 8.84126 0.485476 8.59296 0.529038 8.34901C0.572601 8.09634 0.603094 7.84368 0.620519 7.59102C0.637944 7.35578 0.646657 7.11619 0.646657 6.87224C0.655369 6.62829 0.664082 6.38434 0.672794 6.1404C0.690219 5.89645 0.716356 5.65685 0.751206 5.42162C0.786056 5.18638 0.847043 4.9555 0.934168 4.72898C1.02129 4.48503 1.1302 4.25415 1.26089 4.03633C1.40029 3.81852 1.53533 3.60071 1.66602 3.3829C1.7967 3.16509 1.91868 2.94292 2.03194 2.71639C2.1452 2.48987 2.23233 2.24592 2.29331 1.98455C2.32816 1.81901 2.43707 1.66654 2.62003 1.52714C2.80299 1.37903 3.02952 1.24399 3.2996 1.12201C3.56969 0.991326 3.86156 0.878064 4.17521 0.782227C4.49757 0.677677 4.81557 0.590552 5.12922 0.520853C5.44287 0.44244 5.73038 0.385809 5.99176 0.350959C6.26184 0.307397 6.47965 0.285616 6.64519 0.285616C7.08082 0.285616 7.4903 0.342247 7.87365 0.455509C8.257 0.560059 8.6447 0.699458 9.03676 0.873708C9.21101 0.95212 9.39833 1.01746 9.59872 1.06974C9.80782 1.1133 10.0038 1.13508 10.1868 1.13508C10.3698 1.13508 10.5048 1.10459 10.5919 1.0436C10.6878 0.973901 10.7618 0.895489 10.8141 0.808364C10.8664 0.712527 10.9099 0.625402 10.9448 0.54699C10.9796 0.459865 11.0319 0.394522 11.1016 0.350959L11.0624 0.364028C11.0798 0.346603 11.1103 0.337891 11.1539 0.337891C11.1975 0.329178 11.2454 0.324822 11.2977 0.324822C11.3674 0.333535 11.4501 0.350959 11.546 0.377097C11.6505 0.403234 11.7551 0.433728 11.8596 0.468578C11.9642 0.503428 12.06 0.542634 12.1471 0.586196C12.243 0.621046 12.3127 0.655896 12.3562 0.690746C12.3824 0.708171 12.4259 0.764802 12.4869 0.860639C12.5479 0.956476 12.6089 1.06103 12.6699 1.17429C12.7396 1.28755 12.7962 1.3921 12.8398 1.48794C12.892 1.58377 12.9182 1.64476 12.9182 1.6709C12.9182 1.88871 12.9487 2.09345 13.0097 2.28513C13.0794 2.4768 13.1142 2.68155 13.1142 2.89936C13.1142 3.12588 13.0794 3.34805 13.0097 3.56586C12.9487 3.78367 12.9182 4.00584 12.9182 4.23236C12.9182 4.51116 12.9225 4.78561 12.9312 5.05569C12.9487 5.31707 12.9574 5.58715 12.9574 5.86595C12.9574 6.11861 12.9443 6.37128 12.9182 6.62394C12.9007 6.86789 12.8659 7.11184 12.8136 7.35578C12.7962 7.42548 12.7788 7.50825 12.7613 7.60409C12.7439 7.69993 12.7178 7.79141 12.6829 7.87853C12.6568 7.96566 12.6176 8.03971 12.5653 8.1007C12.5218 8.16169 12.4608 8.19218 12.3824 8.19218C12.3039 8.19218 12.2342 8.17911 12.1733 8.15298C12.1297 8.16169 12.0905 8.1704 12.0556 8.17911C12.0208 8.17911 11.9816 8.17911 11.938 8.17911C11.8596 8.17911 11.8117 8.16604 11.7943 8.13991C11.7768 8.11377 11.7681 8.08328 11.7681 8.04843C11.7681 8.00486 11.7594 7.9613 11.742 7.91774C11.7333 7.86546 11.6897 7.81755 11.6113 7.77398C11.559 7.73913 11.4893 7.71735 11.4022 7.70864C11.3151 7.69993 11.228 7.69121 11.1408 7.6825C11.0624 7.66508 10.9927 7.63894 10.9317 7.60409C10.8707 7.56053 10.8402 7.49518 10.8402 7.40806C10.8402 7.31222 10.8577 7.2643 10.8925 7.2643C10.9361 7.25559 10.984 7.26866 11.0363 7.30351C11.0973 7.33836 11.1626 7.37321 11.2323 7.40806C11.302 7.4342 11.3674 7.4342 11.4283 7.40806C11.3064 7.26866 11.1975 7.1249 11.1016 6.97679C11.0145 6.81997 10.923 6.66314 10.8272 6.50632C10.7401 6.34949 10.6486 6.19267 10.5527 6.03585C10.4569 5.87902 10.348 5.73527 10.226 5.60458C10.1215 5.49132 10.0343 5.36063 9.96464 5.21252C9.89494 5.06441 9.82524 4.91629 9.75554 4.76818C9.69456 4.61136 9.62486 4.4676 9.54644 4.33691C9.47674 4.19751 9.38526 4.08425 9.272 3.99713C8.87123 3.69219 8.42689 3.42646 7.93899 3.19994C7.45981 2.9647 6.95884 2.84708 6.43609 2.84708C6.07017 2.84708 5.73038 2.90371 5.41673 3.01698C5.1118 3.12152 4.80686 3.26528 4.50192 3.44824C4.37995 3.51794 4.26233 3.57893 4.14907 3.6312C4.04452 3.68348 3.93997 3.74447 3.83542 3.81417C3.73958 3.87515 3.65246 3.95357 3.57405 4.0494C3.50435 4.13653 3.45207 4.2585 3.41722 4.41533C3.37366 4.57215 3.35188 4.73333 3.35188 4.89887C3.36059 5.06441 3.32138 5.21687 3.23426 5.35627C3.1907 5.42597 3.121 5.4826 3.02516 5.52617C2.93804 5.56973 2.88141 5.63507 2.85527 5.7222C2.78557 5.92258 2.74201 6.13168 2.72458 6.34949C2.71587 6.56731 2.70716 6.78947 2.69844 7.016C2.69844 7.24252 2.69409 7.4734 2.68537 7.70864C2.67666 7.93516 2.64181 8.15298 2.58082 8.36207C2.52855 8.53632 2.48934 8.71057 2.46321 8.88482C2.44578 9.05907 2.43707 9.23332 2.43707 9.40757C2.43707 9.73865 2.44578 10.0654 2.46321 10.3877C2.48934 10.7014 2.50241 11.0194 2.50241 11.3417C2.50241 11.7338 2.51984 12.1171 2.55469 12.4918C2.59825 12.8664 2.67231 13.2411 2.77686 13.6157C2.85527 13.8945 2.96417 14.1646 3.10357 14.426C3.24297 14.6786 3.34752 14.9443 3.41722 15.2231C3.45207 15.3713 3.51306 15.5281 3.60018 15.6936C3.69602 15.8592 3.80493 16.0116 3.9269 16.151C4.05759 16.2904 4.20134 16.408 4.35817 16.5039C4.51499 16.591 4.67617 16.6346 4.84171 16.6346C4.96369 16.6346 5.0813 16.6215 5.19457 16.5954C5.30783 16.5605 5.42545 16.5431 5.54742 16.5431C5.67811 16.5431 5.80879 16.5562 5.93948 16.5823C6.07017 16.5997 6.20086 16.6084 6.33154 16.6084C6.56678 16.6084 6.81073 16.5779 7.06339 16.5169C7.32476 16.456 7.54258 16.334 7.71683 16.151C7.8388 16.0203 7.9782 15.9289 8.13502 15.8766C8.29185 15.8243 8.44867 15.7807 8.6055 15.7459C8.77103 15.711 8.92786 15.6675 9.07597 15.6152C9.22408 15.5542 9.35477 15.4497 9.46803 15.3016C9.53773 15.2057 9.60743 15.0576 9.67713 14.8572C9.75554 14.6568 9.83396 14.4477 9.91237 14.2299C9.99078 14.0121 10.0692 13.8161 10.1476 13.6418C10.2347 13.4589 10.3219 13.3456 10.409 13.302C10.4874 13.2585 10.5353 13.1496 10.5527 12.9753C10.5789 12.7924 10.5919 12.5789 10.5919 12.335V11.7338C10.5919 11.5596 10.5963 11.3897 10.605 11.2241C10.6137 11.0586 10.6311 10.9105 10.6573 10.7798C10.6921 10.6491 10.7401 10.5445 10.801 10.4661C10.862 10.3877 10.9448 10.3485 11.0493 10.3485C11.1452 10.3485 11.2192 10.3834 11.2715 10.4531C11.3325 10.5141 11.4066 10.5445 11.4937 10.5445C11.5808 10.5445 11.6636 10.5184 11.742 10.4661C11.8291 10.4051 11.9206 10.3747 12.0164 10.3747C12.1471 10.3747 12.2647 10.4313 12.3693 10.5445C12.4825 10.6578 12.5827 10.7841 12.6699 10.9235C12.7657 11.0629 12.8398 11.1936 12.892 11.3156C12.953 11.4289 12.9966 11.4899 13.0227 11.4986C13.1098 11.516 13.1578 11.59 13.1665 11.7207C13.1839 11.8427 13.1926 11.9429 13.1926 12.0213ZM27.5159 18.6341C27.3678 18.6515 27.2676 18.7168 27.2153 18.8301C27.1718 18.9347 27.1239 19.0436 27.0716 19.1568C27.028 19.2527 26.9452 19.3267 26.8233 19.379C26.71 19.44 26.575 19.4835 26.4181 19.5097C26.27 19.5445 26.1045 19.5663 25.9215 19.575C25.7473 19.5837 25.5817 19.5881 25.4249 19.5881C24.9632 19.5881 24.5058 19.5707 24.0527 19.5358C23.6084 19.5097 23.1597 19.4748 22.7066 19.4313C22.2536 19.3964 21.8005 19.3616 21.3475 19.3267C20.9031 19.2919 20.4545 19.2744 20.0014 19.2744C19.5396 19.2744 19.0866 19.318 18.6423 19.4051C18.2066 19.4923 17.7667 19.5358 17.3223 19.5358C17.2439 19.5358 17.1176 19.5184 16.9433 19.4835C16.7691 19.4487 16.5905 19.4008 16.4075 19.3398C16.2333 19.2788 16.0764 19.2135 15.937 19.1438C15.7976 19.0741 15.7279 19 15.7279 18.9216C15.7279 18.7561 15.7279 18.5862 15.7279 18.4119C15.7367 18.2377 15.7541 18.0721 15.7802 17.9153C15.8151 17.7498 15.8673 17.5929 15.937 17.4448C16.0155 17.2967 16.12 17.1617 16.2507 17.0397C16.3552 16.9526 16.4206 16.8742 16.4467 16.8045C16.4729 16.726 16.499 16.6563 16.5251 16.5954C16.5513 16.5344 16.5861 16.4821 16.6297 16.4385C16.682 16.3863 16.7822 16.334 16.9303 16.2817C16.9651 16.273 17.0043 16.2338 17.0479 16.1641C17.0914 16.0857 17.1394 16.0029 17.1916 15.9158C17.2439 15.8199 17.2918 15.7328 17.3354 15.6544C17.3877 15.5673 17.4312 15.5019 17.4661 15.4584C17.6839 15.2057 17.9104 14.9661 18.1457 14.7396C18.3896 14.5131 18.6335 14.2866 18.8775 14.06C19.1389 13.8161 19.3785 13.5504 19.5963 13.2628C19.8141 12.9753 20.0493 12.7009 20.302 12.4395C20.5285 12.213 20.7681 12.0082 21.0208 11.8253C21.2821 11.6336 21.5217 11.4158 21.7395 11.1718C21.8441 11.0586 21.9269 10.954 21.9879 10.8582C22.0576 10.7536 22.1229 10.6535 22.1839 10.5576C22.2536 10.4531 22.3276 10.3572 22.406 10.2701C22.4932 10.1743 22.6064 10.0741 22.7458 9.96953C22.7981 9.93468 22.8635 9.86062 22.9419 9.74736C23.0203 9.6341 23.0943 9.51212 23.164 9.38143C23.2337 9.25075 23.2904 9.12442 23.3339 9.00244C23.3862 8.87175 23.4123 8.77156 23.4123 8.70186C23.4123 8.57117 23.3644 8.46662 23.2686 8.38821C23.1727 8.30109 23.0551 8.23139 22.9157 8.17911C22.785 8.12684 22.6456 8.09199 22.4975 8.07456C22.3581 8.05714 22.2405 8.04843 22.1447 8.04843C22.014 8.04843 21.892 8.07021 21.7788 8.11377C21.6655 8.15733 21.5522 8.17911 21.439 8.17911C21.3083 8.17911 21.1819 8.15733 21.06 8.11377C20.938 8.07021 20.816 8.04843 20.694 8.04843C20.6505 8.04843 20.6069 8.05278 20.5634 8.06149C20.5198 8.07021 20.4762 8.08328 20.4327 8.1007C20.3107 8.13555 20.1626 8.16169 19.9883 8.17911C19.8228 8.18783 19.6529 8.20089 19.4787 8.21832C19.3044 8.23574 19.1389 8.26188 18.982 8.29673C18.8339 8.32287 18.7163 8.36643 18.6292 8.42742C18.4549 8.55811 18.3155 8.68444 18.211 8.80641C18.1064 8.92839 18.028 9.05036 17.9758 9.17233C17.9235 9.2856 17.8886 9.40322 17.8712 9.52519C17.8538 9.64716 17.8451 9.77785 17.8451 9.91725C17.8451 10.0305 17.8451 10.1525 17.8451 10.2832C17.8538 10.4051 17.8581 10.5402 17.8581 10.6883C17.8581 10.9932 17.7797 11.2415 17.6229 11.4332C17.4661 11.6162 17.2221 11.7077 16.8911 11.7077C16.6994 11.7077 16.5426 11.6467 16.4206 11.5247C16.2986 11.4027 16.2028 11.2503 16.1331 11.0673C16.0721 10.8756 16.0285 10.6709 16.0024 10.4531C15.985 10.2353 15.9762 10.0305 15.9762 9.83884C15.9762 9.63845 15.9806 9.47291 15.9893 9.34223C15.998 9.20283 16.0024 9.12442 16.0024 9.10699C16.0024 8.88047 16.0067 8.64523 16.0155 8.40128C16.0329 8.14862 16.0677 7.91338 16.12 7.69557C16.1723 7.46905 16.2463 7.2643 16.3422 7.08134C16.438 6.89838 16.5643 6.75462 16.7212 6.65007C16.7996 6.5978 16.8867 6.54553 16.9825 6.49325C17.0871 6.43226 17.1916 6.37999 17.2962 6.33643C17.4094 6.28415 17.5184 6.24494 17.6229 6.21881C17.7362 6.18396 17.8407 6.16653 17.9366 6.16653C18.1369 6.16653 18.272 6.25801 18.3417 6.44098C18.3765 6.53681 18.4245 6.62829 18.4854 6.71542C18.5551 6.79383 18.6205 6.87224 18.6815 6.95065C18.7512 7.02907 18.8122 7.11184 18.8644 7.19896C18.9167 7.27737 18.9472 7.36014 18.9559 7.44727H19.0213C19.091 7.44727 19.1607 7.4734 19.2304 7.52568C19.3088 7.56924 19.3698 7.59102 19.4133 7.59102C19.4917 7.59102 19.5309 7.55182 19.5309 7.4734C19.5396 7.39499 19.544 7.32529 19.544 7.2643C19.544 7.15104 19.5135 7.06392 19.4525 7.00293C19.3915 6.93323 19.3218 6.87224 19.2434 6.81997C19.165 6.76769 19.0953 6.71542 19.0343 6.66314C18.9733 6.60216 18.9428 6.51939 18.9428 6.41484L18.9559 6.33643C19.1911 6.37999 19.4264 6.41048 19.6616 6.42791C19.8969 6.43662 20.1321 6.44098 20.3673 6.44098C20.7594 6.44098 21.1471 6.42791 21.5304 6.40177C21.9138 6.36692 22.2971 6.33207 22.6805 6.29722C23.0638 6.25366 23.4472 6.21445 23.8305 6.1796C24.2139 6.14475 24.5972 6.12733 24.9806 6.12733C25.0503 6.12733 25.1331 6.13168 25.2289 6.1404C25.3247 6.1404 25.4206 6.14911 25.5164 6.16653C25.621 6.17525 25.7168 6.19267 25.8039 6.21881C25.8997 6.24494 25.9738 6.28415 26.0261 6.33643C25.9738 6.39741 25.9128 6.47583 25.8431 6.57166C25.7734 6.6675 25.7342 6.75898 25.7255 6.84611C25.7778 6.90709 25.8039 6.93759 25.8039 6.93759C25.8126 6.93759 25.8388 6.94194 25.8823 6.95065C25.9346 6.95065 25.9738 6.92452 25.9999 6.87224C26.0348 6.81997 26.0653 6.76769 26.0914 6.71542C26.1176 6.65443 26.1393 6.5978 26.1568 6.54553C26.1829 6.49325 26.2178 6.46711 26.2613 6.46711C26.3223 6.46711 26.3789 6.51068 26.4312 6.5978C26.4835 6.67621 26.527 6.77205 26.5619 6.88531C26.6055 6.99857 26.636 7.11184 26.6534 7.2251C26.6795 7.33836 26.6926 7.42548 26.6926 7.48647C26.6926 7.56488 26.6795 7.62152 26.6534 7.65636C26.636 7.6825 26.6098 7.70428 26.575 7.72171C26.5488 7.73042 26.5183 7.74349 26.4835 7.76091C26.4573 7.76963 26.4312 7.79141 26.4051 7.82626C26.3267 7.95695 26.2744 8.09199 26.2482 8.23139C26.2221 8.36207 26.1611 8.49276 26.0653 8.62345C25.8562 8.9371 25.6166 9.22025 25.3465 9.47291C25.0764 9.72558 24.8063 9.98259 24.5362 10.244C24.4143 10.3572 24.3054 10.4792 24.2095 10.6099C24.1137 10.7406 24.0179 10.8756 23.922 11.015C23.8349 11.1457 23.7391 11.2764 23.6345 11.4071C23.5387 11.5291 23.4341 11.6467 23.3209 11.7599C23.1989 11.8732 23.0943 11.9516 23.0072 11.9952C22.9288 12.0387 22.8547 12.0867 22.785 12.1389C22.7153 12.1825 22.65 12.2435 22.589 12.3219C22.5367 12.3916 22.4801 12.5136 22.4191 12.6878C22.393 12.7662 22.2797 12.8795 22.0793 13.0276C21.8789 13.167 21.6568 13.3282 21.4128 13.5111C21.1689 13.6854 20.938 13.8727 20.7202 14.0731C20.5111 14.2648 20.376 14.4477 20.3151 14.622C20.2628 14.7701 20.2018 14.9226 20.1321 15.0794C20.0711 15.2275 20.0101 15.3843 19.9491 15.5499C19.8969 15.7067 19.8489 15.8679 19.8054 16.0334C19.7618 16.1902 19.74 16.3471 19.74 16.5039C19.74 16.774 19.8489 16.9831 20.0668 17.1312C20.2846 17.2793 20.5416 17.3925 20.8378 17.471C21.134 17.5407 21.439 17.5842 21.7526 17.6016C22.0663 17.6104 22.3146 17.6147 22.4975 17.6147L23.347 17.6016C23.8262 17.5929 24.1965 17.5058 24.4578 17.3403C24.7192 17.1747 24.9109 16.9656 25.0329 16.713C25.1635 16.4516 25.2463 16.1641 25.2812 15.8504C25.3247 15.5368 25.3552 15.2275 25.3726 14.9226C25.3988 14.6089 25.438 14.3214 25.4903 14.06C25.5513 13.7899 25.6689 13.5721 25.8431 13.4066C25.8867 13.3979 25.9302 13.3935 25.9738 13.3935C26.0174 13.3935 26.0609 13.3935 26.1045 13.3935C26.331 13.3935 26.5445 13.4371 26.7449 13.5242C26.9452 13.6026 27.1413 13.6897 27.333 13.7856C27.3242 14.0382 27.2894 14.2909 27.2284 14.5436C27.1761 14.7962 27.15 15.0402 27.15 15.2754C27.15 15.3974 27.211 15.4584 27.333 15.4584C27.3242 15.6065 27.2894 15.7023 27.2284 15.7459C27.1761 15.7807 27.15 15.8287 27.15 15.8896C27.15 15.9332 27.1674 15.9986 27.2023 16.0857C27.2371 16.1641 27.2763 16.2556 27.3199 16.3601C27.3634 16.4647 27.4027 16.5823 27.4375 16.713C27.4723 16.835 27.4898 16.9613 27.4898 17.092C27.4898 17.2401 27.4811 17.3882 27.4636 17.5363C27.4462 17.6844 27.4375 17.8325 27.4375 17.9806C27.4375 18.1985 27.4636 18.4163 27.5159 18.6341ZM46.6877 6.98986C46.6877 7.26866 46.5962 7.48647 46.4133 7.6433C46.239 7.80012 46.0299 7.93516 45.786 8.04843C45.542 8.16169 45.2893 8.27495 45.028 8.38821C44.7753 8.49276 44.5749 8.63652 44.4268 8.81948C44.1742 9.12442 43.9912 9.48163 43.8779 9.89111C43.7734 10.3006 43.6906 10.7275 43.6296 11.1718C43.5773 11.6162 43.5294 12.0605 43.4859 12.5049C43.451 12.9492 43.377 13.3587 43.2637 13.7333C43.2201 13.864 43.1984 14.0165 43.1984 14.1907C43.1984 14.3563 43.1896 14.5218 43.1722 14.6873C43.1635 14.8442 43.1287 14.9923 43.0677 15.1317C43.0067 15.2624 42.8978 15.3582 42.741 15.4192C42.6974 15.4366 42.6451 15.4584 42.5841 15.4845C42.5231 15.5107 42.4926 15.5499 42.4926 15.6021C42.4926 15.6631 42.5188 15.711 42.5711 15.7459C42.6233 15.7807 42.6756 15.8156 42.7279 15.8504C42.7889 15.8766 42.8455 15.9158 42.8978 15.9681C42.9501 16.0116 42.9762 16.077 42.9762 16.1641C42.9762 16.3383 42.9501 16.5126 42.8978 16.6868C42.8542 16.8611 42.8019 17.0353 42.741 17.2096C42.6887 17.3838 42.6364 17.5668 42.5841 17.7585C42.5406 17.9414 42.5188 18.1375 42.5188 18.3466C42.5188 18.4773 42.5014 18.5731 42.4665 18.6341C42.4404 18.6951 42.4012 18.743 42.3489 18.7778C42.2966 18.8127 42.2313 18.8432 42.1529 18.8693C42.0744 18.8867 41.9873 18.9259 41.8915 18.9869C41.8044 19.0392 41.7129 19.0871 41.617 19.1307C41.5299 19.1742 41.4297 19.196 41.3165 19.196C41.2206 19.196 41.1248 19.1742 41.029 19.1307C40.9331 19.0871 40.8329 19.0392 40.7284 18.9869C40.6325 18.9259 40.5323 18.8693 40.4278 18.817C40.332 18.7561 40.2361 18.7125 40.1403 18.6864C40.0706 18.4163 40.0009 18.1941 39.9312 18.0198C39.8702 17.8456 39.8092 17.6931 39.7482 17.5624C39.6959 17.4318 39.648 17.3098 39.6045 17.1965C39.5609 17.0833 39.5217 16.9526 39.4868 16.8045C39.452 16.6476 39.4259 16.4647 39.4084 16.2556C39.391 16.0465 39.3823 15.7764 39.3823 15.4453C39.3823 15.2972 39.3692 15.1534 39.3431 15.014C39.317 14.8659 39.2647 14.7309 39.1863 14.6089C39.0382 14.3824 38.9205 14.1472 38.8334 13.9032C38.755 13.6593 38.694 13.4153 38.6504 13.1714C38.6069 12.9187 38.572 12.666 38.5459 12.4134C38.5285 12.152 38.5067 11.8906 38.4806 11.6293C38.4718 11.5683 38.4631 11.4811 38.4544 11.3679C38.4457 11.2546 38.4239 11.1414 38.3891 11.0281C38.3629 10.9148 38.3194 10.819 38.2584 10.7406C38.2061 10.6622 38.1321 10.623 38.0362 10.623C37.9404 10.623 37.8358 10.6665 37.7226 10.7536C37.618 10.8321 37.496 10.9235 37.3566 11.0281C37.2172 11.1239 37.0561 11.2154 36.8731 11.3025C36.6901 11.3809 36.4767 11.4202 36.2327 11.4202C36.3199 11.5247 36.407 11.5944 36.4941 11.6293C36.5812 11.6641 36.6858 11.6902 36.8078 11.7077C36.9297 11.7338 37.0169 11.7687 37.0691 11.8122C37.1301 11.8558 37.1737 11.908 37.1998 11.969C37.2347 12.03 37.2608 12.0997 37.2782 12.1781C37.3044 12.2565 37.3436 12.3393 37.3959 12.4264C37.483 12.5746 37.5265 12.7357 37.5265 12.91C37.5265 13.1539 37.4743 13.3979 37.3697 13.6418C37.2652 13.8771 37.1475 14.0949 37.0169 14.2953C36.9297 14.4347 36.8687 14.5828 36.8339 14.7396C36.8078 14.8964 36.786 15.0533 36.7686 15.2101C36.7598 15.3669 36.7468 15.5237 36.7293 15.6805C36.7119 15.8374 36.6684 15.9898 36.5987 16.138C36.5725 16.1989 36.5333 16.2861 36.481 16.3993C36.4288 16.5039 36.4026 16.591 36.4026 16.6607C36.4026 16.6868 36.4113 16.7217 36.4288 16.7653C36.4549 16.8088 36.481 16.8611 36.5072 16.9221C36.542 16.9744 36.5682 17.0353 36.5856 17.105C36.6117 17.166 36.6248 17.2227 36.6248 17.2749C36.6248 17.3621 36.603 17.4622 36.5595 17.5755C36.5159 17.6801 36.4636 17.7933 36.4026 17.9153C36.3504 18.0286 36.2937 18.1418 36.2327 18.2551C36.1805 18.3683 36.1413 18.4729 36.1151 18.5687C36.0628 18.7343 35.9888 18.865 35.893 18.9608C35.8058 19.0479 35.6969 19.1133 35.5662 19.1568C35.4443 19.2004 35.3092 19.2265 35.1611 19.2352C35.0217 19.2439 34.8823 19.2483 34.7429 19.2483C34.4902 19.2483 34.2942 19.2352 34.1548 19.2091C34.0154 19.1917 33.9065 19.1438 33.8281 19.0653C33.7584 18.9956 33.7018 18.8911 33.6582 18.7517C33.6234 18.6123 33.5798 18.4293 33.5275 18.2028C33.4752 17.9937 33.4186 17.7846 33.3576 17.5755C33.3053 17.3664 33.2792 17.153 33.2792 16.9351C33.2792 16.6999 33.3315 16.4777 33.436 16.2686C33.3663 16.1554 33.3053 16.0247 33.2531 15.8766C33.2008 15.7285 33.1355 15.6108 33.057 15.5237C32.9699 15.4279 32.8784 15.3364 32.7826 15.2493C32.6868 15.1534 32.5953 15.0576 32.5082 14.9618C32.5169 14.8659 32.5212 14.7788 32.5212 14.7004C32.5212 14.6133 32.5212 14.5218 32.5212 14.426C32.5212 13.7202 32.4472 12.9971 32.2991 12.2565C32.1509 11.5073 31.9723 10.7929 31.7632 10.1133C31.6674 9.83448 31.5629 9.56004 31.4496 9.28995C31.3363 9.01987 31.2536 8.73671 31.2013 8.44049C31.1054 8.44049 31.014 8.44049 30.9268 8.44049C30.8397 8.43177 30.7482 8.42742 30.6524 8.42742C30.574 8.42742 30.5086 8.4492 30.4564 8.49276C30.4041 8.53632 30.3475 8.58424 30.2865 8.63652C30.2342 8.68879 30.1732 8.73671 30.1035 8.78027C30.0425 8.82384 29.9685 8.84562 29.8813 8.84562C29.7507 8.84562 29.62 8.80205 29.4893 8.71493C29.3673 8.62781 29.2541 8.52326 29.1495 8.40128C29.0537 8.27059 28.9753 8.13555 28.9143 7.99615C28.8533 7.84804 28.8228 7.713 28.8228 7.59102C28.8228 7.42548 28.8663 7.25995 28.9535 7.09441C29.0493 6.92887 29.1669 6.78076 29.3063 6.65007C29.4544 6.51068 29.6156 6.40177 29.7899 6.32336C29.9641 6.23623 30.1297 6.19267 30.2865 6.19267C30.4869 6.19267 30.6785 6.23188 30.8615 6.31029C31.0445 6.3887 31.2361 6.42791 31.4365 6.42791C31.5933 6.42791 31.7502 6.41919 31.907 6.40177C32.0638 6.37563 32.225 6.36256 32.3905 6.36256C32.6258 6.36256 32.861 6.37128 33.0962 6.3887C33.3315 6.40613 33.5667 6.41484 33.802 6.41484C33.9239 6.41484 34.0416 6.44533 34.1548 6.50632C34.2681 6.55859 34.377 6.62394 34.4815 6.70235C34.5861 6.77205 34.6906 6.85046 34.7952 6.93759C34.8997 7.016 35.0043 7.08134 35.1088 7.13362C35.1001 7.32529 35.0522 7.4734 34.9651 7.57795C34.8867 7.67379 34.7821 7.75656 34.6514 7.82626C34.5295 7.88725 34.3944 7.94823 34.2463 8.00922C34.1069 8.07021 33.9762 8.15733 33.8542 8.27059C33.741 8.37514 33.6408 8.52326 33.5537 8.71493C33.4752 8.89789 33.436 9.1462 33.436 9.45985C33.436 9.84319 33.5275 10.183 33.7105 10.4792C33.754 10.5576 33.7758 10.6578 33.7758 10.7798C33.7758 10.8756 33.7671 10.9758 33.7497 11.0804C33.7323 11.1762 33.7235 11.2677 33.7235 11.3548C33.7235 11.4594 33.7497 11.5421 33.802 11.6031C33.9326 11.7599 34.0111 11.9647 34.0372 12.2173C34.072 12.4613 34.0982 12.714 34.1156 12.9753C34.1417 13.2367 34.1766 13.485 34.2202 13.7202C34.2724 13.9468 34.3813 14.1123 34.5469 14.2169H34.6384C34.8736 14.2169 35.0435 14.1297 35.148 13.9555C35.2613 13.7812 35.3397 13.5765 35.3833 13.3413C35.4268 13.0973 35.4486 12.849 35.4486 12.5963C35.4573 12.3437 35.4704 12.1389 35.4878 11.9821C35.6272 11.8601 35.7361 11.6815 35.8145 11.4463C35.893 11.2023 35.9539 10.9453 35.9975 10.6752C36.0411 10.4051 36.0672 10.1394 36.0759 9.87804C36.0933 9.60796 36.1021 9.38579 36.1021 9.21154C36.1021 8.94145 36.0672 8.72364 35.9975 8.55811C35.9365 8.38386 35.8625 8.23574 35.7753 8.11377C35.6969 7.9918 35.6229 7.87853 35.5532 7.77398C35.4922 7.66072 35.4617 7.52568 35.4617 7.36885C35.4617 7.18589 35.5619 7.02907 35.7623 6.89838C35.9714 6.75898 36.2197 6.65007 36.5072 6.57166C36.7947 6.48454 37.0866 6.42355 37.3828 6.3887C37.679 6.34514 37.9186 6.32336 38.1016 6.32336C38.2322 6.32336 38.3194 6.32771 38.3629 6.33643C38.4152 6.33643 38.4501 6.34078 38.4675 6.34949C38.4675 6.27979 38.5503 6.24494 38.7158 6.24494C38.8465 6.24494 39.0077 6.26237 39.1993 6.29722C39.391 6.33207 39.5827 6.37128 39.7744 6.41484C39.966 6.44969 40.1446 6.48454 40.3102 6.51939C40.4757 6.55424 40.5977 6.57166 40.6761 6.57166C40.9288 6.57166 41.1858 6.53681 41.4472 6.46711C41.7172 6.39741 41.9655 6.31029 42.1921 6.20574C42.5406 6.04891 42.8891 5.94436 43.2376 5.89209C43.5948 5.8311 43.9607 5.80061 44.3353 5.80061C44.5357 5.80061 44.771 5.82239 45.041 5.86595C45.3111 5.90951 45.5681 5.97921 45.8121 6.07505C46.0648 6.16218 46.2739 6.27108 46.4394 6.40177C46.6136 6.53246 46.7008 6.68057 46.7008 6.84611C46.7008 6.88096 46.6964 6.91145 46.6877 6.93759C46.6877 6.96372 46.6877 6.98115 46.6877 6.98986ZM39.3431 7.39499C39.3431 7.31658 39.3039 7.25995 39.2255 7.2251C39.1558 7.18154 39.0904 7.15104 39.0294 7.13362C39.0207 7.22945 38.9902 7.30787 38.938 7.36885C38.8944 7.42113 38.8639 7.48647 38.8465 7.56488C38.8639 7.58231 38.8726 7.6128 38.8726 7.65636C38.8726 7.67379 38.8944 7.6825 38.938 7.6825C38.9902 7.67379 39.0469 7.66072 39.1079 7.6433C39.1688 7.61716 39.2211 7.58231 39.2647 7.53875C39.317 7.49518 39.3431 7.44727 39.3431 7.39499ZM42.375 8.81948C42.2618 8.68008 42.1137 8.54504 41.9307 8.41435C41.7477 8.27495 41.5561 8.15298 41.3557 8.04843C41.164 7.94388 40.981 7.86111 40.8068 7.80012C40.6325 7.73913 40.4931 7.70864 40.3886 7.70864C40.3712 7.70864 40.3407 7.73478 40.2971 7.78705C40.2535 7.83061 40.2013 7.88725 40.1403 7.95695C40.088 8.01793 40.027 8.07892 39.9573 8.13991C39.8876 8.19218 39.8266 8.23139 39.7744 8.25753C39.7744 8.68444 39.7656 9.11135 39.7482 9.53826C39.7395 9.95646 39.7352 10.379 39.7352 10.8059C39.7352 11.0237 39.7526 11.2285 39.7874 11.4202C39.831 11.6031 39.9268 11.7817 40.0749 11.956C40.1446 12.0431 40.21 12.1825 40.271 12.3742C40.3407 12.5571 40.4104 12.7444 40.4801 12.9361C40.5585 13.1278 40.6456 13.2977 40.7414 13.4458C40.8373 13.5852 40.9462 13.6549 41.0682 13.6549C41.225 13.6549 41.3557 13.5547 41.4602 13.3543C41.5735 13.1539 41.6693 12.8969 41.7477 12.5833C41.8261 12.2696 41.8915 11.9211 41.9438 11.5378C41.996 11.1544 42.044 10.7841 42.0875 10.4269C42.1311 10.0697 42.1746 9.74736 42.2182 9.45985C42.2618 9.16362 42.314 8.95017 42.375 8.81948ZM61.3639 13.2759C61.3639 13.3979 61.3421 13.5155 61.2985 13.6288C61.2637 13.7333 61.2201 13.8248 61.1678 13.9032C61.1243 13.9816 61.0807 14.047 61.0371 14.0992C61.0023 14.1515 60.9849 14.182 60.9849 14.1907C60.9849 14.2778 61.011 14.3693 61.0633 14.4652C61.1243 14.561 61.1548 14.6655 61.1548 14.7788C61.1548 14.8311 61.133 14.8659 61.0894 14.8834C61.0546 14.9008 61.0154 14.9095 60.9718 14.9095C60.8934 14.9095 60.828 14.9008 60.7758 14.8834C60.7845 15.0489 60.7975 15.2101 60.815 15.3669C60.8411 15.5237 60.8542 15.6849 60.8542 15.8504C60.8542 16.1031 60.828 16.2686 60.7758 16.3471C60.7322 16.4168 60.6843 16.4603 60.632 16.4777C60.5797 16.4952 60.5275 16.5169 60.4752 16.5431C60.4316 16.5605 60.4098 16.6389 60.4098 16.7783C60.4098 16.8567 60.3532 16.9569 60.2399 17.0789C60.1354 17.2009 60.0047 17.3228 59.8479 17.4448C59.6998 17.5668 59.543 17.6713 59.3774 17.7585C59.2206 17.8456 59.0943 17.8892 58.9984 17.8892C58.9723 17.8892 58.9418 17.8804 58.9069 17.863C58.9069 17.9327 58.9113 18.0068 58.92 18.0852C58.9287 18.1636 58.9331 18.2377 58.9331 18.3074C58.9331 18.4206 58.8982 18.499 58.8285 18.5426C58.7588 18.5774 58.6804 18.6123 58.5933 18.6471C58.4626 18.7081 58.3276 18.7996 58.1882 18.9216C58.0488 19.0348 57.905 19.1525 57.7569 19.2744C57.6088 19.3964 57.4563 19.501 57.2995 19.5881C57.1514 19.6839 56.9946 19.7318 56.829 19.7318C56.6896 19.7318 56.5589 19.697 56.437 19.6273C56.3237 19.5576 56.1887 19.5227 56.0318 19.5227C55.8924 19.5227 55.7748 19.5402 55.679 19.575C55.5831 19.6186 55.4917 19.6621 55.4045 19.7057C55.3261 19.758 55.2433 19.8015 55.1562 19.8364C55.0691 19.88 54.9689 19.9017 54.8556 19.9017C54.6291 19.9017 54.4026 19.8408 54.1761 19.7188C53.9495 19.6055 53.7317 19.514 53.5226 19.4443C53.4007 19.4008 53.27 19.3659 53.1306 19.3398C52.9912 19.3224 52.8561 19.3006 52.7254 19.2744C52.5948 19.2483 52.4684 19.2047 52.3465 19.1438C52.2332 19.0915 52.133 19.0131 52.0459 18.9085C51.8629 18.682 51.6495 18.4947 51.4055 18.3466C51.1616 18.1985 50.9133 18.0591 50.6606 17.9284C50.4079 17.7977 50.164 17.6626 49.9287 17.5232C49.6935 17.3751 49.4888 17.1835 49.3145 16.9482C49.1838 16.7653 49.0357 16.5692 48.8702 16.3601C48.7046 16.1423 48.5478 15.9158 48.3997 15.6805C48.2603 15.4453 48.1427 15.2057 48.0468 14.9618C47.951 14.7178 47.9031 14.4782 47.9031 14.243C47.9031 14.0687 47.9205 13.8988 47.9554 13.7333C47.9902 13.5678 48.0251 13.4022 48.0599 13.2367C48.1035 13.0625 48.1427 12.8926 48.1775 12.727C48.2124 12.5615 48.2298 12.3916 48.2298 12.2173V12.0736C48.2298 12.0387 48.2167 11.9995 48.1906 11.956C48.1645 11.9124 48.134 11.8732 48.0991 11.8384C48.073 11.7948 48.0425 11.7599 48.0076 11.7338C47.9815 11.699 47.9641 11.6815 47.9554 11.6815C47.9379 11.6815 47.9292 11.6859 47.9292 11.6946C47.9379 11.6162 47.9597 11.4986 47.9946 11.3417C48.0381 11.1762 48.0861 11.0107 48.1383 10.8451C48.1906 10.6709 48.2429 10.5141 48.2952 10.3747C48.3474 10.2265 48.3953 10.1307 48.4389 10.0871C48.4912 10.0436 48.5391 10 48.5827 9.95646C48.6349 9.90418 48.6611 9.83884 48.6611 9.76043C48.6611 9.68201 48.6567 9.60796 48.648 9.53826C48.6393 9.45985 48.6349 9.38143 48.6349 9.30302C48.6349 9.19847 48.648 9.13748 48.6741 9.12006C48.7003 9.09392 48.7351 9.08085 48.7787 9.08085C48.8223 9.08085 48.8658 9.0765 48.9094 9.06779C48.9529 9.05036 48.9965 9.00244 49.0401 8.92403C49.1185 8.7672 49.1925 8.62345 49.2622 8.49276C49.3407 8.35336 49.4234 8.22703 49.5105 8.11377C49.5977 8.00051 49.6979 7.89596 49.8111 7.80012C49.9244 7.70428 50.0638 7.6128 50.2293 7.52568C50.3687 7.44727 50.5038 7.35143 50.6345 7.23817C50.7739 7.1249 50.9133 7.01164 51.0527 6.89838C51.192 6.78512 51.3314 6.68928 51.4708 6.61087C51.619 6.53246 51.7758 6.49325 51.9413 6.49325C52.1766 6.49325 52.4031 6.45404 52.6209 6.37563C52.8474 6.28851 53.0739 6.22316 53.3005 6.1796C53.6577 6.12733 54.0105 6.07941 54.359 6.03585C54.7162 5.98357 55.0778 5.95743 55.4437 5.95743C55.6441 5.95743 55.8881 5.99228 56.1756 6.06198C56.4631 6.12297 56.755 6.20574 57.0512 6.31029C57.3561 6.41484 57.6393 6.53246 57.9007 6.66314C58.1707 6.79383 58.3842 6.92452 58.541 7.0552V7.09441C58.541 7.21639 58.5192 7.34272 58.4757 7.4734C58.4321 7.59538 58.4103 7.71735 58.4103 7.83933C58.4103 7.85675 58.4103 7.87418 58.4103 7.8916C58.4103 7.90903 58.419 7.91774 58.4365 7.91774C58.5846 7.91774 58.724 7.90031 58.8547 7.86546C58.9941 7.8219 59.1378 7.80012 59.2859 7.80012C59.3034 7.94823 59.3687 8.04843 59.482 8.1007C59.5952 8.15298 59.7085 8.20089 59.8218 8.24446C59.9263 8.29673 60.0221 8.39257 60.1093 8.53197C60.2051 8.66266 60.2922 8.81512 60.3706 8.98937C60.449 9.15491 60.5231 9.32045 60.5928 9.48598C60.6712 9.65152 60.7453 9.78656 60.815 9.89111C60.8847 9.99566 60.9457 10.122 60.9979 10.2701C61.0589 10.4095 61.1068 10.5576 61.1417 10.7144C61.1853 10.8713 61.2157 11.0281 61.2332 11.1849C61.2506 11.333 61.2593 11.4724 61.2593 11.6031C61.2593 11.7774 61.2245 11.9255 61.1548 12.0474C61.0938 12.1607 61.0241 12.2653 60.9457 12.3611C60.8672 12.4482 60.7932 12.5353 60.7235 12.6225C60.6625 12.7009 60.632 12.7924 60.632 12.8969C60.632 12.9579 60.6451 13.0145 60.6712 13.0668C60.6974 13.1191 60.7322 13.167 60.7758 13.2106C60.7932 13.2019 60.828 13.1931 60.8803 13.1844C60.9413 13.1757 60.9718 13.1496 60.9718 13.106V13.0929C60.9718 13.0232 60.9413 12.9579 60.8803 12.8969C60.828 12.8359 60.8019 12.7619 60.8019 12.6747C60.8019 12.6573 60.8106 12.6312 60.828 12.5963C60.8455 12.5528 60.8672 12.531 60.8934 12.531C60.9457 12.531 60.9979 12.5658 61.0502 12.6355C61.1025 12.6965 61.1504 12.7662 61.194 12.8446C61.2462 12.9143 61.2854 12.9753 61.3116 13.0276C61.3377 13.0799 61.3508 13.0973 61.3508 13.0799L61.3377 13.0668C61.3464 13.1104 61.3508 13.1496 61.3508 13.1844C61.3595 13.2106 61.3639 13.2411 61.3639 13.2759ZM60.057 13.3805C60.057 13.2411 60.0047 13.1583 59.9002 13.1322C59.7956 13.0973 59.678 13.0755 59.5473 13.0668C59.4166 13.0581 59.2859 13.045 59.1552 13.0276C59.0333 13.0102 58.9505 12.9448 58.9069 12.8316V12.7009C58.9069 12.5092 58.8808 12.287 58.8285 12.0344C58.785 11.773 58.7283 11.5116 58.6586 11.2503C58.5889 10.9802 58.5149 10.7188 58.4365 10.4661C58.3581 10.2048 58.284 9.97388 58.2143 9.7735C58.1446 9.57311 58.088 9.41193 58.0444 9.28995C58.0008 9.16798 57.9791 9.10699 57.9791 9.10699C57.9094 9.12442 57.8527 9.13313 57.8092 9.13313C57.6611 9.13313 57.5304 9.10263 57.4171 9.04165C57.3126 8.98066 57.1906 8.91532 57.0512 8.84562C56.9205 8.77592 56.755 8.71057 56.5546 8.64959C56.3629 8.5886 56.1059 8.55811 55.7835 8.55811C55.4263 8.55811 55.0735 8.53632 54.725 8.49276C54.3765 8.44049 54.0236 8.41435 53.6664 8.41435C53.1785 8.41435 52.7211 8.52761 52.2942 8.75414C51.8673 8.97195 51.4926 9.26382 51.1703 9.62974C50.8479 9.98695 50.5952 10.3921 50.4123 10.8451C50.2293 11.2982 50.1378 11.7556 50.1378 12.2173C50.1378 12.409 50.1422 12.6355 50.1509 12.8969C50.1596 13.1496 50.1814 13.4066 50.2163 13.668C50.2511 13.9206 50.3077 14.1602 50.3861 14.3867C50.4646 14.6046 50.5735 14.7701 50.7129 14.8834V15.2493C50.7477 15.2841 50.7913 15.3059 50.8436 15.3146C50.9045 15.3146 50.9612 15.3146 51.0134 15.3146C51.0744 15.3146 51.1267 15.3233 51.1703 15.3408C51.2138 15.3495 51.2487 15.3843 51.2748 15.4453C51.3881 15.7677 51.5362 16.016 51.7192 16.1902C51.9021 16.3558 52.0981 16.4995 52.3072 16.6215C52.5163 16.7348 52.7254 16.8524 52.9345 16.9744C53.1436 17.0876 53.3353 17.2575 53.5096 17.484C53.5793 17.4753 53.6533 17.471 53.7317 17.471C53.8101 17.4622 53.8842 17.4579 53.9539 17.4579C54.2327 17.4579 54.5028 17.4797 54.7642 17.5232C55.0342 17.5581 55.3043 17.5755 55.5744 17.5755C55.8619 17.5755 56.119 17.5015 56.3455 17.3533C56.5807 17.2052 56.7811 17.0179 56.9466 16.7914C57.0512 16.6433 57.147 16.5169 57.2341 16.4124C57.3213 16.3078 57.4084 16.212 57.4955 16.1249C57.5914 16.029 57.6916 15.9419 57.7961 15.8635C57.9094 15.7764 58.0401 15.6805 58.1882 15.576C58.2404 15.5411 58.3014 15.4976 58.3711 15.4453C58.4495 15.393 58.5236 15.3364 58.5933 15.2754C58.6717 15.2057 58.737 15.1404 58.7893 15.0794C58.8416 15.0097 58.8677 14.9443 58.8677 14.8834C58.8677 14.8049 58.8547 14.7265 58.8285 14.6481C58.8111 14.5697 58.8024 14.4913 58.8024 14.4129C58.8024 14.3258 58.8155 14.2212 58.8416 14.0992C58.8677 13.9773 58.9069 13.8596 58.9592 13.7464C59.0202 13.6331 59.0899 13.5416 59.1683 13.4719C59.2554 13.3935 59.36 13.3543 59.482 13.3543C59.5778 13.3543 59.6736 13.3761 59.7695 13.4197C59.8653 13.4632 59.9524 13.5155 60.0309 13.5765C60.0483 13.4894 60.057 13.424 60.057 13.3805ZM54.1891 4.66363C54.1891 4.56779 54.2458 4.45018 54.359 4.31078C54.481 4.17138 54.6204 4.03198 54.7772 3.89258C54.9341 3.75318 55.0909 3.62685 55.2477 3.51359C55.4132 3.40032 55.5396 3.32191 55.6267 3.27835C55.9578 3.1041 56.2017 2.97341 56.3585 2.88629C56.5241 2.79916 56.6678 2.71204 56.7898 2.62491C56.9118 2.52908 57.0425 2.41581 57.1819 2.28513C57.33 2.15444 57.5522 1.95841 57.8484 1.69704C57.9616 1.6012 58.0488 1.47922 58.1098 1.33111C58.1795 1.17429 58.2622 1.06103 58.3581 0.991326C58.4713 0.912914 58.6194 0.856283 58.8024 0.821433C58.9941 0.77787 59.1509 0.756089 59.2729 0.756089C59.4036 0.756089 59.5125 0.786583 59.5996 0.84757C59.6954 0.899845 59.7738 0.969545 59.8348 1.05667C59.8958 1.14379 59.9394 1.24399 59.9655 1.35725C60.0004 1.47051 60.0178 1.58377 60.0178 1.69704C60.0178 1.80159 60.0047 1.91485 59.9786 2.03682C59.9612 2.1588 59.9263 2.28077 59.874 2.40275C59.8305 2.51601 59.7738 2.62491 59.7041 2.72946C59.6431 2.83401 59.5691 2.91678 59.482 2.97777C59.3774 3.03876 59.2642 3.08232 59.1422 3.10846C59.0202 3.13459 58.8939 3.15637 58.7632 3.1738C58.6325 3.18251 58.5062 3.19994 58.3842 3.22607C58.2622 3.2435 58.149 3.27835 58.0444 3.33062C57.7917 3.46131 57.6044 3.5615 57.4825 3.6312C57.3692 3.69219 57.2646 3.75318 57.1688 3.81417C57.0817 3.86644 56.9815 3.92743 56.8682 3.99713C56.7637 4.05812 56.5938 4.15395 56.3585 4.28464C56.2976 4.31078 56.2453 4.36305 56.2017 4.44146C56.1582 4.51988 56.1015 4.58522 56.0318 4.63749C55.9621 4.68977 55.8794 4.72898 55.7835 4.75511C55.6964 4.78125 55.618 4.82046 55.5483 4.87273C55.4263 4.98599 55.3174 5.09926 55.2216 5.21252C55.1344 5.32578 55.0038 5.38241 54.8295 5.38241C54.7511 5.38241 54.6727 5.36063 54.5943 5.31707C54.5246 5.26479 54.4592 5.2038 54.3982 5.13411C54.3373 5.06441 54.285 4.99035 54.2414 4.91194C54.2066 4.82481 54.1891 4.74204 54.1891 4.66363ZM77.5952 9.45985C77.5952 9.6341 77.5603 9.78221 77.4906 9.90418C77.4209 10.0262 77.3425 10.1438 77.2554 10.257C77.177 10.3616 77.0942 10.4705 77.0071 10.5838C76.9287 10.697 76.8764 10.8321 76.8503 10.9889C76.7719 10.954 76.6891 10.9323 76.602 10.9235C76.5236 10.9148 76.4408 10.9105 76.3537 10.9105C76.1446 10.9105 75.9355 10.9279 75.7264 10.9627C75.526 10.9889 75.3256 11.002 75.1252 11.002C74.89 11.002 74.6939 10.9323 74.5371 10.7929C74.389 10.6447 74.267 10.4661 74.1712 10.257C74.0841 10.0479 74.0231 9.82577 73.9882 9.59053C73.9534 9.34658 73.936 9.12877 73.936 8.9371C73.936 8.69315 73.9752 8.44484 74.0536 8.19218C73.9839 8.16604 73.9229 8.15298 73.8706 8.15298C73.7573 8.15298 73.6746 8.18783 73.6223 8.25753C73.5787 8.32723 73.5134 8.36207 73.4263 8.36207C73.3479 8.36207 73.2782 8.33594 73.2172 8.28366C73.1562 8.22268 73.0821 8.19218 72.995 8.19218C72.8643 8.19218 72.6988 8.23574 72.4984 8.32287C72.3067 8.40128 72.1194 8.50583 71.9364 8.63652C71.7535 8.7672 71.5923 8.91096 71.4529 9.06779C71.3222 9.2159 71.2569 9.35965 71.2569 9.49905C71.0739 9.51648 70.8997 9.56875 70.7341 9.65588C70.5773 9.73429 70.4248 9.82141 70.2767 9.91725C70.1635 9.98695 70.0676 10.0959 69.9892 10.244C69.9108 10.3921 69.8367 10.5533 69.767 10.7275C69.706 10.893 69.6407 11.0629 69.571 11.2372C69.51 11.4114 69.436 11.5552 69.3488 11.6685C69.2007 11.8601 69.07 12.0562 68.9568 12.2565C68.8522 12.4482 68.7999 12.666 68.7999 12.91C68.7999 13.2149 68.8479 13.5242 68.9437 13.8379C69.0395 14.1515 69.0875 14.4695 69.0875 14.7919C69.0875 15.001 69.07 15.2101 69.0352 15.4192C69.009 15.6283 68.996 15.833 68.996 16.0334C68.996 16.2774 69.0395 16.4734 69.1267 16.6215C69.2138 16.7696 69.3314 16.8872 69.4795 16.9744C69.6276 17.0528 69.7975 17.105 69.9892 17.1312C70.1809 17.1573 70.3769 17.1704 70.5773 17.1704C70.7951 17.1704 71.0042 17.166 71.2046 17.1573C71.4137 17.1399 71.6054 17.1312 71.7796 17.1312C71.8406 17.2009 71.8755 17.2662 71.8842 17.3272C71.8929 17.3882 71.8885 17.4535 71.8711 17.5232C71.8624 17.5842 71.845 17.6496 71.8188 17.7193C71.8014 17.7803 71.7927 17.8543 71.7927 17.9414C71.7927 17.9763 71.8014 18.0198 71.8188 18.0721C71.9495 18.0721 72.0628 18.0416 72.1586 17.9806C72.2544 17.9197 72.3241 17.8238 72.3677 17.6931C72.4287 17.7106 72.481 17.7367 72.5245 17.7715C72.5768 17.8064 72.6029 17.8587 72.6029 17.9284C72.6029 17.9806 72.5899 18.0329 72.5637 18.0852C72.5376 18.1288 72.5071 18.1723 72.4723 18.2159C72.4374 18.2594 72.4069 18.3074 72.3808 18.3596C72.3546 18.4032 72.3416 18.4555 72.3416 18.5165C72.3416 18.5513 72.3459 18.5905 72.3546 18.6341C72.3633 18.6689 72.3764 18.6994 72.3938 18.7256C72.3503 18.7953 72.2893 18.8432 72.2109 18.8693C72.1325 18.8955 72.0541 18.9085 71.9756 18.9085C71.8362 18.9085 71.7186 18.8867 71.6228 18.8432C71.5357 18.7996 71.4529 18.7517 71.3745 18.6994C71.3048 18.6471 71.2394 18.5992 71.1785 18.5557C71.1175 18.5121 71.0434 18.4903 70.9563 18.4903C70.9214 18.4903 70.8692 18.499 70.7995 18.5165C70.7298 18.5339 70.6601 18.5557 70.5904 18.5818C70.5207 18.6079 70.4597 18.6428 70.4074 18.6864C70.3551 18.7212 70.329 18.7561 70.329 18.7909C70.329 18.8606 70.3508 18.9216 70.3943 18.9739C70.4466 19.0261 70.4727 19.0871 70.4727 19.1568C70.4727 19.2178 70.451 19.2657 70.4074 19.3006C70.3638 19.3354 70.3116 19.3572 70.2506 19.3659C70.1896 19.3833 70.1242 19.3921 70.0545 19.3921C69.9936 19.4008 69.9413 19.4051 69.8977 19.4051C69.5579 19.4051 69.2181 19.3659 68.8784 19.2875C68.5473 19.2178 68.2119 19.183 67.8721 19.183C67.7152 19.183 67.5584 19.2178 67.4016 19.2875C67.2448 19.3572 67.0792 19.3921 66.905 19.3921C66.8092 19.3921 66.7351 19.3703 66.6828 19.3267C66.6393 19.2919 66.6001 19.2483 66.5652 19.196C66.5304 19.1438 66.4911 19.0958 66.4476 19.0523C66.404 19.0174 66.3387 19 66.2516 19C66.086 19 65.9205 19.0174 65.7549 19.0523C65.5981 19.0871 65.4369 19.122 65.2714 19.1568C65.1146 19.2004 64.9534 19.2352 64.7879 19.2614C64.631 19.2962 64.4699 19.3136 64.3043 19.3136C64.2172 19.3136 64.1126 19.3006 63.9907 19.2744C63.8687 19.257 63.7511 19.2222 63.6378 19.1699C63.5245 19.1176 63.4287 19.0523 63.3503 18.9739C63.2719 18.8955 63.2327 18.7996 63.2327 18.6864C63.2327 18.6167 63.2719 18.5252 63.3503 18.4119C63.4374 18.2986 63.5333 18.1897 63.6378 18.0852C63.7424 17.9719 63.8469 17.8761 63.9515 17.7977C64.056 17.7193 64.1344 17.6801 64.1867 17.6801C64.3261 17.6801 64.4611 17.6844 64.5918 17.6931C64.7312 17.7018 64.875 17.7062 65.0231 17.7062C65.2583 17.7062 65.4936 17.6713 65.7288 17.6016C65.9728 17.5232 66.1906 17.4143 66.3822 17.2749C66.5826 17.1355 66.7438 16.9613 66.8658 16.7522C66.9878 16.5431 67.0487 16.3078 67.0487 16.0465C67.0487 15.9332 67.04 15.8243 67.0226 15.7198C67.0052 15.6065 66.9965 15.4932 66.9965 15.38C66.9965 15.1534 67.0226 14.9269 67.0749 14.7004C67.1272 14.4739 67.1533 14.2473 67.1533 14.0208C67.1533 13.7159 67.1184 13.4066 67.0487 13.0929C66.9878 12.7706 66.9573 12.4482 66.9573 12.1259C66.9573 11.8384 66.9616 11.5552 66.9703 11.2764C66.9878 10.9889 66.9965 10.7014 66.9965 10.4139C66.9965 10.2832 66.9921 10.0915 66.9834 9.83884C66.9747 9.58618 66.9442 9.33352 66.8919 9.08085C66.8484 8.82819 66.7743 8.60602 66.6698 8.41435C66.5739 8.22268 66.4389 8.12684 66.2646 8.12684C66.0729 8.12684 65.8813 8.14862 65.6896 8.19218C65.4979 8.23574 65.3019 8.25753 65.1015 8.25753C64.9534 8.25753 64.7791 8.24881 64.5788 8.23139C64.3784 8.20525 64.1867 8.16169 64.0037 8.1007C63.8208 8.031 63.6639 7.93516 63.5333 7.81319C63.4026 7.69121 63.3372 7.53003 63.3372 7.32965C63.3372 7.11184 63.3677 6.93759 63.4287 6.8069C63.4897 6.6675 63.5681 6.56295 63.6639 6.49325C63.7685 6.42355 63.8861 6.37563 64.0168 6.34949C64.1562 6.32336 64.3043 6.31029 64.4611 6.31029C64.6005 6.31029 64.7443 6.31464 64.8924 6.32336C65.0405 6.33207 65.1843 6.33643 65.3237 6.33643C65.6025 6.33643 65.8769 6.32336 66.147 6.29722C66.4258 6.26237 66.7046 6.24494 66.9834 6.24494C67.1751 6.24494 67.3667 6.25366 67.5584 6.27108C67.7501 6.28851 67.9374 6.32771 68.1204 6.3887C68.2859 6.44098 68.4079 6.54117 68.4863 6.68928C68.5647 6.82868 68.6344 6.97244 68.6954 7.12055C68.7651 7.26866 68.8435 7.4037 68.9306 7.52568C69.0178 7.63894 69.1572 7.69557 69.3488 7.69557C69.436 7.69557 69.5144 7.67379 69.5841 7.63023C69.6625 7.57795 69.7365 7.52132 69.8062 7.46033C69.8759 7.39935 69.9456 7.34272 70.0153 7.29044C70.085 7.23817 70.1678 7.20332 70.2636 7.18589C70.4553 7.15975 70.6296 7.09877 70.7864 7.00293C70.9519 6.90709 71.1131 6.81126 71.2699 6.71542C71.4268 6.61958 71.5836 6.53246 71.7404 6.45404C71.9059 6.37563 72.0846 6.33643 72.2762 6.33643C72.3895 6.33643 72.5289 6.32336 72.6944 6.29722C72.8687 6.27108 73.0386 6.23623 73.2041 6.19267C73.3784 6.1404 73.5395 6.07941 73.6876 6.00971C73.8445 5.94001 73.9664 5.8616 74.0536 5.77447C74.2888 5.7919 74.5632 5.84853 74.8769 5.94436C75.1993 6.0402 75.5042 6.17089 75.7917 6.33643C76.0879 6.49325 76.3449 6.68057 76.5628 6.89838C76.7806 7.11619 76.9069 7.36014 76.9418 7.63023C76.9679 7.79576 77.0158 7.95259 77.0855 8.1007C77.1552 8.24881 77.2249 8.39692 77.2946 8.54504C77.373 8.68444 77.4427 8.83255 77.5037 8.98937C77.5647 9.13748 77.5952 9.29431 77.5952 9.45985ZM93.9964 18.5034C93.9964 18.6254 93.9746 18.7168 93.9311 18.7778C93.8875 18.8301 93.8352 18.878 93.7742 18.9216C93.722 18.9652 93.6741 19.0087 93.6305 19.0523C93.5869 19.0958 93.5651 19.1612 93.5651 19.2483C93.5651 19.3006 93.5695 19.3398 93.5782 19.3659C93.2733 19.4443 92.9335 19.4966 92.5589 19.5227C92.1929 19.5489 91.8531 19.562 91.5395 19.562C91.4959 19.562 91.4393 19.5489 91.3696 19.5227C91.3086 19.5053 91.2476 19.4792 91.1866 19.4443C91.1257 19.4182 91.0734 19.379 91.0298 19.3267C90.995 19.2832 90.9775 19.2352 90.9775 19.183C90.873 19.2178 90.7554 19.2439 90.6247 19.2614C90.5027 19.2875 90.3807 19.318 90.2588 19.3529C90.1455 19.3877 90.0366 19.4356 89.932 19.4966C89.8275 19.5576 89.7404 19.6404 89.6707 19.7449C89.5574 19.7101 89.4049 19.6796 89.2133 19.6534C89.0303 19.6273 88.8343 19.5968 88.6252 19.562C88.4161 19.5271 88.207 19.4835 87.9979 19.4313C87.7888 19.3877 87.5971 19.3267 87.4229 19.2483C87.2573 19.1786 87.1179 19.0915 87.0047 18.9869C86.9001 18.8824 86.8478 18.7517 86.8478 18.5949C86.8478 18.5513 86.8522 18.4773 86.8609 18.3727C86.8696 18.2594 86.887 18.1462 86.9132 18.0329C86.9393 17.9197 86.9698 17.8195 87.0047 17.7323C87.0482 17.6452 87.0961 17.6016 87.1484 17.6016C87.2355 17.6016 87.3183 17.6191 87.3967 17.6539C87.4838 17.6888 87.5753 17.7062 87.6712 17.7062L87.8018 17.6931L87.8149 17.5886C87.8149 17.5189 87.7931 17.4666 87.7496 17.4318C87.7147 17.3882 87.6668 17.3621 87.6058 17.3533C87.5448 17.3359 87.4838 17.3272 87.4229 17.3272C87.3619 17.3272 87.3052 17.3272 87.253 17.3272C87.3662 17.2139 87.4403 17.0789 87.4751 16.9221C87.51 16.7653 87.5274 16.6128 87.5274 16.4647C87.5274 16.3078 87.5056 16.1292 87.4621 15.9289C87.4272 15.7198 87.3662 15.5194 87.2791 15.3277C87.192 15.136 87.0831 14.9661 86.9524 14.818C86.8304 14.6699 86.6823 14.5741 86.508 14.5305C86.4558 14.4172 86.3948 14.2996 86.3251 14.1776C86.2554 14.047 86.1726 13.9293 86.0768 13.8248C85.9897 13.7202 85.8851 13.6331 85.7631 13.5634C85.6499 13.4937 85.5235 13.4589 85.3841 13.4589C85.2273 13.4589 85.0269 13.5416 84.783 13.7072C84.539 13.8727 84.2994 14.0644 84.0642 14.2822C83.8377 14.4913 83.6373 14.696 83.463 14.8964C83.2975 15.0968 83.2147 15.2319 83.2147 15.3016C83.2147 15.3974 83.2278 15.4889 83.2539 15.576C83.2801 15.6631 83.2931 15.7546 83.2931 15.8504C83.2931 15.9986 83.2627 16.1336 83.2017 16.2556C83.1407 16.3775 83.0623 16.4865 82.9664 16.5823C82.9926 16.7391 83.0579 16.8567 83.1625 16.9351C83.267 17.0136 83.389 17.0745 83.5284 17.1181C83.6765 17.153 83.8246 17.1791 83.9727 17.1965C84.1208 17.2052 84.2559 17.2227 84.3778 17.2488C84.4301 17.3011 84.5042 17.3664 84.6 17.4448C84.7046 17.5232 84.8004 17.6104 84.8875 17.7062C84.9834 17.7933 85.0661 17.8848 85.1358 17.9806C85.2055 18.0765 85.2404 18.1636 85.2404 18.242C85.2404 18.3291 85.2055 18.3814 85.1358 18.3988C85.0748 18.4163 85.0051 18.4293 84.9267 18.438C84.8483 18.4468 84.7743 18.4642 84.7046 18.4903C84.6436 18.5165 84.6131 18.5731 84.6131 18.6602C84.6131 18.7212 84.6218 18.7735 84.6392 18.817C84.221 18.8345 83.8115 18.878 83.4108 18.9477C83.0187 19.0087 82.6223 19.0871 82.2215 19.183C82.056 19.2265 81.8904 19.2527 81.7249 19.2614C81.5594 19.2701 81.3895 19.2744 81.2152 19.2744C81.0497 19.2744 80.8798 19.2788 80.7055 19.2875C80.5313 19.2962 80.3614 19.318 80.1959 19.3529C80.0739 19.379 79.9519 19.3921 79.8299 19.3921C79.6296 19.3921 79.4422 19.3529 79.268 19.2744C79.0937 19.196 78.9413 19.0871 78.8106 18.9477C78.6799 18.8083 78.5753 18.6515 78.4969 18.4773C78.4272 18.303 78.3924 18.1157 78.3924 17.9153C78.3924 17.7236 78.4447 17.545 78.5492 17.3795C78.6625 17.2139 78.8324 17.1312 79.0589 17.1312C79.1286 17.1312 79.1852 17.166 79.2288 17.2357C79.2723 17.2967 79.329 17.3272 79.3987 17.3272C79.4335 17.3272 79.464 17.3098 79.4902 17.2749C79.5163 17.2314 79.5424 17.1835 79.5686 17.1312C79.6034 17.0789 79.647 17.031 79.6993 16.9874C79.7515 16.9439 79.8169 16.9134 79.8953 16.8959C80.1392 16.8611 80.3396 16.7783 80.4964 16.6476C80.662 16.5169 80.7883 16.3601 80.8754 16.1772C80.9626 15.9855 81.0235 15.7807 81.0584 15.5629C81.0932 15.3364 81.1107 15.1142 81.1107 14.8964C81.1107 14.7222 81.0889 14.5566 81.0453 14.3998C81.0105 14.2343 80.9931 14.0687 80.9931 13.9032C80.9931 13.6767 81.0323 13.4458 81.1107 13.2106C81.1978 12.9666 81.2414 12.6965 81.2414 12.4003C81.2414 11.9908 81.2152 11.59 81.1629 11.198C81.1194 10.7972 81.0976 10.3921 81.0976 9.98259C81.0976 9.67766 81.115 9.36837 81.1499 9.05472C81.1847 8.74107 81.2022 8.43177 81.2022 8.12684C81.2022 8.01358 81.1847 7.90903 81.1499 7.81319C81.1237 7.70864 81.0932 7.6128 81.0584 7.52568C81.0235 7.42984 80.9887 7.34272 80.9538 7.2643C80.9277 7.17718 80.9146 7.09005 80.9146 7.00293C80.9146 6.82868 80.9451 6.65443 81.0061 6.48018C81.0671 6.30593 81.0976 6.13168 81.0976 5.95743C81.0976 5.75705 81.0628 5.56537 80.9931 5.38241C80.9321 5.19945 80.9016 5.00777 80.9016 4.80739C80.9016 4.65928 80.9146 4.51116 80.9408 4.36305C80.9756 4.20623 80.9931 4.0494 80.9931 3.89258C80.9931 3.57893 80.9234 3.34369 80.784 3.18687C80.6533 3.03004 80.4877 2.91678 80.2873 2.84708C80.087 2.76867 79.8648 2.72075 79.6208 2.70333C79.3856 2.6859 79.1678 2.65976 78.9674 2.62491C78.767 2.58135 78.5971 2.51165 78.4577 2.41581C78.327 2.31998 78.2617 2.16315 78.2617 1.94534C78.2617 1.69268 78.3183 1.48794 78.4316 1.33111C78.5448 1.16558 78.6886 1.03924 78.8629 0.95212C79.0371 0.864995 79.2288 0.808364 79.4379 0.782227C79.647 0.747377 79.8517 0.729952 80.0521 0.729952C80.6184 0.851926 81.0628 0.956476 81.3851 1.0436C81.7075 1.13073 81.9471 1.20478 82.1039 1.26577C82.2694 1.32676 82.3696 1.37467 82.4045 1.40952C82.448 1.44437 82.4785 1.47487 82.496 1.50101C82.5482 1.65783 82.5918 1.89307 82.6266 2.20672C82.6702 2.52036 82.7051 2.85144 82.7312 3.19994C82.7573 3.53972 82.7748 3.8708 82.7835 4.19316C82.8009 4.50681 82.8096 4.74204 82.8096 4.89887C82.8096 5.13411 82.7748 5.36063 82.7051 5.57844C82.6354 5.78754 82.6005 6.00535 82.6005 6.23188C82.6005 6.47583 82.631 6.71106 82.692 6.93759C82.7617 7.16411 82.8052 7.39935 82.8227 7.6433C82.8314 7.80012 82.8357 7.95695 82.8357 8.11377C82.8445 8.26188 82.8488 8.41435 82.8488 8.57117C82.8488 8.7977 82.8445 9.02858 82.8357 9.26382C82.8357 9.49905 82.8357 9.73429 82.8357 9.96953C82.8357 10.3006 82.8445 10.6273 82.8619 10.9497C82.8793 11.272 82.9142 11.5944 82.9664 11.9168C83.01 11.9342 83.0492 11.9429 83.084 11.9429C83.1189 11.9429 83.1581 11.9429 83.2017 11.9429C83.3759 11.9429 83.5197 11.8993 83.6329 11.8122C83.7462 11.7164 83.8507 11.6075 83.9466 11.4855C84.0424 11.3635 84.1426 11.2415 84.2472 11.1196C84.3517 10.9889 84.4824 10.8887 84.6392 10.819C84.8483 10.7319 85.0226 10.6055 85.162 10.44C85.3101 10.2657 85.4495 10.0871 85.5802 9.90418C85.7109 9.72122 85.8459 9.55133 85.9853 9.3945C86.1334 9.22897 86.312 9.10263 86.5211 9.01551C86.7389 8.92839 86.8478 8.77156 86.8478 8.54504C86.8478 8.41435 86.8304 8.28802 86.7956 8.16604C86.7607 8.03536 86.7171 7.90903 86.6649 7.78705C86.6213 7.66508 86.5821 7.5431 86.5473 7.42113C86.5124 7.29044 86.495 7.15975 86.495 7.02907L86.508 6.88531L86.6126 6.89838H86.6518C86.6867 6.89838 86.7215 6.89838 86.7564 6.89838C86.7912 6.88967 86.8086 6.86789 86.8086 6.83304C86.7651 6.76334 86.7433 6.68492 86.7433 6.5978C86.7433 6.47583 86.7694 6.39741 86.8217 6.36256C86.8827 6.32771 86.9654 6.31029 87.07 6.31029C87.2617 6.31029 87.4446 6.34514 87.6189 6.41484C87.8018 6.48454 87.9892 6.51939 88.1808 6.51939C88.3202 6.51939 88.4509 6.50196 88.5729 6.46711C88.7036 6.42355 88.8343 6.37999 88.965 6.33643C89.0956 6.28415 89.222 6.24059 89.344 6.20574C89.4746 6.16218 89.6097 6.1404 89.7491 6.1404C89.9843 6.1404 90.2152 6.17089 90.4417 6.23188C90.6682 6.29286 90.8991 6.32336 91.1344 6.32336C91.3783 6.32336 91.6179 6.28851 91.8531 6.21881C92.0884 6.14911 92.3323 6.11426 92.585 6.11426C92.6286 6.11426 92.6895 6.12733 92.768 6.15346C92.8464 6.1796 92.9204 6.21445 92.9901 6.25801C93.0685 6.30158 93.1339 6.34949 93.1862 6.40177C93.2471 6.45404 93.2776 6.50632 93.2776 6.55859C93.2602 6.61958 93.2254 6.66314 93.1731 6.68928C93.1208 6.70671 93.0947 6.73284 93.0947 6.76769C93.0947 6.81126 93.1165 6.86353 93.16 6.92452C93.2036 6.97679 93.2515 7.03778 93.3038 7.10748C93.3648 7.16847 93.417 7.23817 93.4606 7.31658C93.5042 7.38628 93.5259 7.46033 93.5259 7.53875C93.5259 7.65201 93.4214 7.76091 93.2123 7.86546C93.0032 7.97001 92.7592 8.06585 92.4804 8.15298C92.2104 8.23139 91.9446 8.29673 91.6833 8.34901C91.4219 8.39257 91.2389 8.41435 91.1344 8.41435C90.9514 8.41435 90.812 8.38386 90.7162 8.32287C90.629 8.25317 90.5419 8.21832 90.4548 8.21832C90.3154 8.21832 90.1368 8.27495 89.919 8.38821C89.7012 8.49276 89.4659 8.63216 89.2133 8.80641C88.9693 8.98066 88.721 9.18105 88.4684 9.40757C88.2157 9.62538 87.9848 9.84319 87.7757 10.061C87.5753 10.2788 87.4054 10.4879 87.266 10.6883C87.1353 10.8887 87.07 11.0542 87.07 11.1849C87.0613 11.3243 87.0395 11.4594 87.0047 11.59C86.9698 11.7207 86.9524 11.8558 86.9524 11.9952C86.9524 12.1171 86.9916 12.2173 87.07 12.2958C87.1484 12.3742 87.2399 12.4482 87.3444 12.5179C87.449 12.5789 87.5535 12.6486 87.6581 12.727C87.7714 12.8054 87.8541 12.9013 87.9064 13.0145C87.9848 13.1888 88.1024 13.3892 88.2593 13.6157C88.4161 13.8335 88.586 14.0687 88.7689 14.3214C88.9606 14.5654 89.1523 14.8137 89.344 15.0663C89.5356 15.319 89.7099 15.5673 89.8667 15.8112C90.0322 16.0465 90.1629 16.273 90.2588 16.4908C90.3633 16.6999 90.4156 16.8829 90.4156 17.0397V17.1312C90.8512 17.0353 91.2781 16.9874 91.6963 16.9874C91.9838 16.9874 92.267 17.0048 92.5458 17.0397C92.8333 17.0658 93.1165 17.0963 93.3953 17.1312V17.2488V17.3141C93.3953 17.4884 93.4257 17.6321 93.4867 17.7454C93.5477 17.85 93.6174 17.9458 93.6958 18.0329C93.7742 18.1113 93.8439 18.1897 93.9049 18.2682C93.9659 18.3379 93.9964 18.4163 93.9964 18.5034ZM109.587 16.713C109.587 16.8611 109.561 17.0005 109.509 17.1312C109.457 17.2619 109.409 17.3969 109.365 17.5363C109.33 17.6583 109.304 17.7585 109.287 17.8369C109.278 17.9153 109.261 17.985 109.235 18.046C109.208 18.0983 109.165 18.1505 109.104 18.2028C109.052 18.2464 108.964 18.2986 108.842 18.3596C108.581 18.499 108.302 18.6428 108.006 18.7909C107.719 18.9303 107.427 19 107.13 19C106.878 19 106.638 18.9434 106.412 18.8301C106.194 18.7081 105.989 18.5774 105.797 18.438C105.614 18.2899 105.445 18.1549 105.288 18.0329C105.14 17.9109 105.013 17.85 104.909 17.85C104.796 17.85 104.695 17.8804 104.608 17.9414C104.53 18.0024 104.447 18.0678 104.36 18.1375C104.281 18.2072 104.19 18.2725 104.085 18.3335C103.99 18.3945 103.868 18.425 103.72 18.425C103.598 18.425 103.471 18.4468 103.341 18.4903C103.21 18.5339 103.079 18.5862 102.948 18.6471C102.818 18.6994 102.683 18.7561 102.543 18.817C102.413 18.8693 102.291 18.9129 102.177 18.9477C101.785 19.0523 101.389 19.1133 100.988 19.1307C100.596 19.1481 100.2 19.1568 99.7989 19.1568C99.6944 19.1568 99.5332 19.1525 99.3154 19.1438C99.0976 19.1438 98.8754 19.122 98.6489 19.0784C98.4311 19.0436 98.235 18.9826 98.0608 18.8955C97.8952 18.8083 97.8125 18.6864 97.8125 18.5295C97.8125 18.4947 97.8168 18.4642 97.8255 18.438C97.7646 18.5077 97.6949 18.5644 97.6164 18.6079C97.538 18.6515 97.4509 18.6733 97.3551 18.6733C97.2157 18.6733 97.0458 18.5774 96.8454 18.3858C96.645 18.1941 96.4533 17.9719 96.2704 17.7193C96.0874 17.4666 95.9306 17.2183 95.7999 16.9744C95.6692 16.7217 95.6039 16.5344 95.6039 16.4124C95.6039 16.3166 95.63 16.2294 95.6823 16.151C95.7433 16.0726 95.7738 15.9855 95.7738 15.8896C95.7738 15.7677 95.7563 15.6544 95.7215 15.5499C95.6953 15.4366 95.6823 15.319 95.6823 15.197C95.6823 15.0402 95.7128 14.8746 95.7738 14.7004C95.8347 14.5174 95.9088 14.3388 95.9959 14.1646C96.083 13.9816 96.1745 13.8074 96.2704 13.6418C96.3662 13.4676 96.4533 13.3064 96.5317 13.1583C96.6189 12.984 96.7408 12.8446 96.8977 12.7401C97.0545 12.6355 97.22 12.5441 97.3943 12.4656C97.5685 12.3872 97.7428 12.3088 97.917 12.2304C98.0913 12.152 98.2437 12.0474 98.3744 11.9168C98.5051 12.0649 98.675 12.1389 98.8841 12.1389C99.1019 12.1389 99.3154 12.1084 99.5245 12.0474C99.7336 11.9777 99.947 11.9429 100.165 11.9429C100.339 11.9429 100.505 11.9603 100.661 11.9952C100.827 12.03 100.997 12.0474 101.171 12.0474C101.363 12.0474 101.502 12.0257 101.589 11.9821C101.685 11.9298 101.803 11.8427 101.942 11.7207C102.082 11.5988 102.256 11.5073 102.465 11.4463C102.683 11.3766 102.905 11.3243 103.131 11.2895C103.367 11.2459 103.598 11.2023 103.824 11.1588C104.059 11.1152 104.268 11.0542 104.451 10.9758C104.634 10.8887 104.782 10.7754 104.896 10.636C105.009 10.4879 105.066 10.2875 105.066 10.0349C105.066 9.75607 104.983 9.4642 104.817 9.15927C104.66 8.84562 104.456 8.56246 104.203 8.3098C103.95 8.04843 103.672 7.83497 103.367 7.66943C103.062 7.5039 102.77 7.42113 102.491 7.42113C102.456 7.42113 102.421 7.42548 102.387 7.4342C102.352 7.44291 102.321 7.44727 102.295 7.44727C102.086 7.48212 101.851 7.50825 101.589 7.52568C101.328 7.53439 101.084 7.5736 100.857 7.6433C100.631 7.70428 100.439 7.81319 100.282 7.97001C100.126 8.11813 100.047 8.34029 100.047 8.63652C100.047 8.81077 100.06 8.98502 100.086 9.15927C100.121 9.3248 100.139 9.4947 100.139 9.66895C100.139 9.93032 100.073 10.1481 99.9427 10.3224C99.8207 10.4966 99.6595 10.636 99.4591 10.7406C99.2675 10.8451 99.054 10.9192 98.8188 10.9627C98.5835 10.9976 98.357 11.015 98.1392 11.015C97.8778 11.015 97.6513 10.9802 97.4596 10.9105C97.2679 10.8408 97.1111 10.6796 96.9891 10.4269C96.8933 10.244 96.7888 10.0479 96.6755 9.83884C96.5709 9.62103 96.5187 9.40322 96.5187 9.1854C96.5187 8.95017 96.5579 8.73235 96.6363 8.53197C96.7234 8.32287 96.8193 8.12248 96.9238 7.93081C97.0284 7.73042 97.1285 7.53439 97.2244 7.34272C97.3289 7.14233 97.403 6.92887 97.4465 6.70235C97.5075 6.6675 97.5903 6.63265 97.6949 6.5978C97.8081 6.56295 97.9257 6.5281 98.0477 6.49325C98.1784 6.4584 98.3004 6.42791 98.4136 6.40177C98.5356 6.36692 98.6358 6.33643 98.7142 6.31029C98.9233 6.2493 99.1237 6.1796 99.3154 6.10119C99.5158 6.01406 99.7161 5.93565 99.9165 5.86595C100.126 5.79625 100.33 5.73527 100.531 5.68299C100.74 5.63072 100.953 5.60022 101.171 5.59151L101.576 5.57844C101.951 5.57844 102.334 5.61329 102.726 5.68299C103.118 5.74398 103.502 5.84417 103.876 5.98357C104.251 6.12297 104.604 6.29722 104.935 6.50632C105.275 6.70671 105.575 6.9463 105.837 7.2251C106.028 7.4342 106.185 7.6825 106.307 7.97001C106.438 8.24881 106.538 8.54504 106.608 8.85869C106.686 9.17233 106.738 9.49034 106.765 9.8127C106.799 10.1264 106.817 10.4182 106.817 10.6883C106.817 11.0542 106.804 11.4158 106.778 11.773C106.76 12.1215 106.751 12.4787 106.751 12.8446C106.751 13.1931 106.769 13.5416 106.804 13.8901C106.847 14.2299 106.895 14.5741 106.947 14.9226C107 15.2624 107.043 15.6065 107.078 15.955C107.122 16.2948 107.144 16.6346 107.144 16.9744C107.161 17.1835 107.187 17.3141 107.222 17.3664C107.266 17.41 107.309 17.4318 107.353 17.4318C107.544 17.4318 107.697 17.3751 107.81 17.2619C107.932 17.1399 108.041 17.0092 108.137 16.8698C108.233 16.7217 108.337 16.5866 108.45 16.4647C108.564 16.3427 108.707 16.2817 108.882 16.2817C108.96 16.2817 109.038 16.2861 109.117 16.2948C109.204 16.3035 109.282 16.3253 109.352 16.3601C109.422 16.3863 109.478 16.4298 109.522 16.4908C109.566 16.5431 109.587 16.6171 109.587 16.713ZM105.288 13.4589C105.288 13.4066 105.283 13.3151 105.275 13.1844C105.275 13.0537 105.266 12.9231 105.249 12.7924C105.231 12.653 105.201 12.531 105.157 12.4264C105.122 12.3219 105.066 12.2696 104.987 12.2696C104.97 12.2696 104.948 12.2783 104.922 12.2958C104.896 12.3045 104.874 12.3088 104.857 12.3088C104.525 12.4918 104.242 12.6443 104.007 12.7662C103.772 12.8795 103.537 12.9753 103.301 13.0537C103.075 13.1234 102.831 13.1714 102.569 13.1975C102.308 13.2236 101.981 13.2367 101.589 13.2367C101.537 13.2367 101.393 13.2585 101.158 13.302C100.923 13.3456 100.666 13.3979 100.387 13.4589C100.108 13.5111 99.8468 13.5678 99.6029 13.6288C99.3589 13.681 99.2065 13.7159 99.1455 13.7333C99.0322 13.7769 98.9495 13.8204 98.8972 13.864C98.8536 13.9076 98.8188 13.9555 98.7926 14.0078C98.7665 14.06 98.7404 14.1167 98.7142 14.1776C98.6881 14.2299 98.6402 14.2866 98.5705 14.3475C98.4833 14.4172 98.3875 14.4739 98.2829 14.5174C98.1871 14.561 98.0956 14.6263 98.0085 14.7135C97.8778 14.8442 97.7558 15.0184 97.6426 15.2362C97.5293 15.4453 97.4727 15.6457 97.4727 15.8374C97.4727 16.0726 97.5337 16.2817 97.6556 16.4647C97.7776 16.6476 97.9388 16.8045 98.1392 16.9351C98.3396 17.0658 98.5661 17.1791 98.8188 17.2749C99.0714 17.3708 99.3241 17.4448 99.5767 17.4971C99.8381 17.5494 100.086 17.5886 100.322 17.6147C100.566 17.6409 100.775 17.6539 100.949 17.6539C101.158 17.6539 101.406 17.6409 101.694 17.6147C101.981 17.5799 102.269 17.5319 102.556 17.471C102.844 17.4013 103.114 17.3098 103.367 17.1965C103.619 17.0833 103.82 16.9395 103.968 16.7653C104.029 16.6956 104.072 16.6346 104.099 16.5823C104.125 16.5213 104.151 16.4647 104.177 16.4124C104.212 16.3514 104.247 16.2904 104.281 16.2294C104.325 16.1684 104.39 16.1031 104.478 16.0334C104.678 15.8679 104.83 15.6849 104.935 15.4845C105.048 15.2841 105.131 15.075 105.183 14.8572C105.235 14.6394 105.266 14.4129 105.275 14.1776C105.283 13.9424 105.288 13.7028 105.288 13.4589Z" fill="white"/>
<path d="M133.464 1.82772C133.464 1.90614 133.442 1.99326 133.399 2.0891C133.364 2.18493 133.298 2.23285 133.203 2.23285C133.168 2.23285 133.133 2.21543 133.098 2.18058C133.072 2.14573 133.046 2.10652 133.02 2.06296C132.993 2.0194 132.963 1.98019 132.928 1.94534C132.902 1.91049 132.871 1.88871 132.837 1.88C132.845 2.04553 132.845 2.17187 132.837 2.25899C132.828 2.34611 132.815 2.41146 132.797 2.45502C132.78 2.48987 132.754 2.51165 132.719 2.52036C132.693 2.52036 132.662 2.52036 132.627 2.52036C132.558 2.52036 132.492 2.52472 132.431 2.53343C132.37 2.54215 132.309 2.55521 132.249 2.57264C132.048 2.6162 131.896 2.6467 131.791 2.66412C131.695 2.67283 131.626 2.69897 131.582 2.74253C131.538 2.78609 131.512 2.85579 131.504 2.95163C131.495 3.04747 131.482 3.19994 131.464 3.40904C131.447 3.56586 131.434 3.72269 131.425 3.87951C131.416 4.02762 131.412 4.18009 131.412 4.33691C131.412 4.75511 131.43 5.1646 131.464 5.56537C131.508 5.96615 131.53 6.37563 131.53 6.79383C131.53 6.99422 131.512 7.19025 131.477 7.38192C131.451 7.5736 131.438 7.76963 131.438 7.97001C131.438 8.14426 131.473 8.31851 131.543 8.49276C131.621 8.6583 131.66 8.81512 131.66 8.96324C131.66 9.0068 131.643 9.05036 131.608 9.09392C131.582 9.12877 131.547 9.16798 131.504 9.21154C131.469 9.2551 131.434 9.30302 131.399 9.3553C131.373 9.40757 131.36 9.46856 131.36 9.53826C131.36 9.72122 131.39 9.89983 131.451 10.0741C131.521 10.2396 131.556 10.4139 131.556 10.5968C131.556 10.8756 131.538 11.1544 131.504 11.4332C131.469 11.712 131.43 11.9908 131.386 12.2696C131.351 12.5484 131.316 12.8272 131.281 13.106C131.247 13.3848 131.229 13.6636 131.229 13.9424C131.229 14.1689 131.242 14.3867 131.268 14.5958C131.303 14.7962 131.36 14.9966 131.438 15.197C131.456 15.2406 131.473 15.2885 131.491 15.3408C131.508 15.393 131.517 15.441 131.517 15.4845C131.517 15.5978 131.486 15.6936 131.425 15.772C131.373 15.8417 131.347 15.9027 131.347 15.955C131.347 15.9986 131.373 16.0508 131.425 16.1118C131.486 16.1728 131.525 16.2294 131.543 16.2817C131.604 16.4821 131.652 16.7043 131.687 16.9482C131.721 17.1835 131.739 17.4056 131.739 17.6147C131.739 17.7977 131.691 17.9763 131.595 18.1505C131.499 18.3248 131.373 18.4816 131.216 18.621C131.059 18.7517 130.881 18.8606 130.68 18.9477C130.489 19.0348 130.293 19.0784 130.092 19.0784C129.822 19.0784 129.591 18.9956 129.4 18.8301C129.217 18.6646 129.055 18.4642 128.916 18.2289C128.785 17.985 128.663 17.7323 128.55 17.471C128.446 17.2096 128.341 16.9831 128.236 16.7914C128.149 16.6346 128.08 16.4865 128.027 16.3471C127.984 16.1989 127.936 16.0552 127.884 15.9158C127.831 15.7764 127.766 15.6413 127.688 15.5107C127.609 15.3713 127.5 15.2362 127.361 15.1055C127.248 15.001 127.16 14.879 127.099 14.7396C127.038 14.5915 126.986 14.439 126.943 14.2822C126.908 14.1167 126.873 13.9555 126.838 13.7987C126.812 13.6331 126.781 13.4807 126.747 13.3413C126.651 13.0015 126.537 12.666 126.407 12.335C126.276 12.0039 126.15 11.6728 126.028 11.3417C125.984 11.2372 125.928 11.1196 125.858 10.9889C125.797 10.8582 125.732 10.7275 125.662 10.5968C125.592 10.4661 125.527 10.3398 125.466 10.2178C125.414 10.0959 125.383 9.98259 125.374 9.87804C125.34 9.59053 125.265 9.33352 125.152 9.10699C125.039 8.87175 124.917 8.64959 124.786 8.44049C124.656 8.23139 124.529 8.01793 124.407 7.80012C124.285 7.58231 124.203 7.33836 124.159 7.06827C124.142 6.98115 124.111 6.86789 124.067 6.72849C124.024 6.58038 123.967 6.43662 123.898 6.29722C123.828 6.14911 123.745 6.02278 123.649 5.91823C123.553 5.81368 123.453 5.7614 123.349 5.7614C123.253 5.7614 123.174 5.80932 123.113 5.90516C123.061 5.99228 123.018 6.10119 122.983 6.23188C122.948 6.35385 122.922 6.48018 122.904 6.61087C122.896 6.73284 122.891 6.82432 122.891 6.88531C122.891 7.05956 122.9 7.23381 122.917 7.40806C122.944 7.58231 122.957 7.75656 122.957 7.93081C122.957 8.06149 122.931 8.18783 122.878 8.3098C122.826 8.43177 122.8 8.55375 122.8 8.67572C122.8 8.75414 122.826 8.81948 122.878 8.87175C122.939 8.92403 122.97 8.98502 122.97 9.05472C122.97 9.12442 122.961 9.19412 122.944 9.26382C122.926 9.3248 122.917 9.39015 122.917 9.45985C122.917 9.67766 122.926 9.89111 122.944 10.1002C122.97 10.3093 122.983 10.5184 122.983 10.7275C122.983 10.8756 122.974 11.0281 122.957 11.1849C122.939 11.333 122.904 11.4724 122.852 11.6031C122.8 11.7338 122.721 11.8471 122.617 11.9429C122.512 12.03 122.377 12.0867 122.212 12.1128C122.247 12.1825 122.29 12.2304 122.342 12.2565C122.403 12.274 122.464 12.287 122.525 12.2958C122.586 12.3045 122.639 12.3175 122.682 12.335C122.726 12.3524 122.748 12.4003 122.748 12.4787C122.748 12.5223 122.743 12.5615 122.734 12.5963C122.734 12.6225 122.734 12.653 122.734 12.6878C122.734 12.7837 122.752 12.8621 122.787 12.9231C122.83 12.984 122.878 13.045 122.931 13.106C122.983 13.1583 123.026 13.2149 123.061 13.2759C123.105 13.3282 123.127 13.3979 123.127 13.485C123.127 13.5896 123.113 13.6897 123.087 13.7856C123.061 13.8814 123.048 13.9773 123.048 14.0731C123.048 14.2822 123.074 14.4869 123.127 14.6873C123.179 14.879 123.205 15.0794 123.205 15.2885C123.205 15.4018 123.192 15.4845 123.166 15.5368C123.148 15.5804 123.122 15.6152 123.087 15.6413C123.061 15.6675 123.035 15.6893 123.009 15.7067C122.992 15.7154 122.983 15.7459 122.983 15.7982C122.983 15.8853 122.996 15.9681 123.022 16.0465C123.048 16.1162 123.061 16.1946 123.061 16.2817C123.061 16.334 123.052 16.3863 123.035 16.4385C123.026 16.4908 123 16.5387 122.957 16.5823C122.965 16.6868 123 16.7609 123.061 16.8045C123.122 16.848 123.192 16.8872 123.27 16.9221C123.357 16.9569 123.44 16.9961 123.519 17.0397C123.597 17.0745 123.658 17.1399 123.702 17.2357C123.736 17.3141 123.771 17.3882 123.806 17.4579C123.85 17.5189 123.919 17.5494 124.015 17.5494C124.163 17.5494 124.298 17.5189 124.42 17.4579C124.542 17.3882 124.673 17.3533 124.812 17.3533C125.039 17.3533 125.196 17.4448 125.283 17.6278C125.37 17.802 125.414 17.985 125.414 18.1767C125.414 18.4206 125.37 18.5949 125.283 18.6994C125.204 18.7953 125.113 18.8693 125.008 18.9216C124.913 18.9652 124.821 19.0087 124.734 19.0523C124.656 19.0958 124.616 19.1786 124.616 19.3006C124.616 19.318 124.616 19.3311 124.616 19.3398C124.625 19.3485 124.629 19.3616 124.629 19.379C124.507 19.3006 124.377 19.2439 124.237 19.2091C124.107 19.1742 123.967 19.1568 123.819 19.1568C123.558 19.1568 123.296 19.1917 123.035 19.2614C122.782 19.3398 122.525 19.379 122.264 19.379C122.072 19.379 121.885 19.3616 121.702 19.3267C121.519 19.2919 121.332 19.2744 121.14 19.2744C121.018 19.2744 120.896 19.2875 120.774 19.3136C120.661 19.3485 120.543 19.3659 120.421 19.3659C120.299 19.3659 120.138 19.3354 119.938 19.2744C119.737 19.2222 119.541 19.1481 119.35 19.0523C119.158 18.9652 118.992 18.8693 118.853 18.7648C118.722 18.6515 118.657 18.547 118.657 18.4511C118.657 18.1897 118.744 17.9545 118.918 17.7454C119.093 17.5276 119.31 17.3969 119.572 17.3533C119.703 17.3272 119.846 17.3141 120.003 17.3141C120.169 17.3141 120.33 17.3098 120.487 17.3011C120.643 17.2836 120.792 17.2531 120.931 17.2096C121.07 17.1573 121.188 17.0702 121.284 16.9482C121.249 16.8175 121.232 16.6694 121.232 16.5039C121.232 16.1989 121.271 15.9027 121.349 15.6152C121.428 15.3277 121.467 15.0315 121.467 14.7265C121.467 14.6046 121.454 14.4782 121.428 14.3475C121.323 13.7464 121.271 13.1409 121.271 12.531C121.271 12.3567 121.275 12.1825 121.284 12.0082C121.293 11.8253 121.297 11.6467 121.297 11.4724C121.297 11.0194 121.262 10.5707 121.192 10.1264C121.131 9.68201 121.092 9.23332 121.075 8.78027C121.057 8.30109 121.049 7.83061 121.049 7.36885C121.049 6.89838 121.001 6.42791 120.905 5.95743C120.879 5.83546 120.861 5.71784 120.853 5.60458C120.853 5.49132 120.853 5.3737 120.853 5.25172V4.78125C120.853 4.41533 120.835 4.14088 120.8 3.95792C120.765 3.77496 120.704 3.64427 120.617 3.56586C120.53 3.47874 120.417 3.42646 120.278 3.40904C120.147 3.3829 119.981 3.35676 119.781 3.33062C119.668 3.3132 119.55 3.25657 119.428 3.16073C119.315 3.06489 119.206 2.95163 119.101 2.82094C119.006 2.69026 118.923 2.55521 118.853 2.41581C118.792 2.27642 118.762 2.15008 118.762 2.03682V1.74931C118.762 1.40081 118.814 1.13508 118.918 0.95212C119.023 0.760446 119.167 0.621046 119.35 0.533921C119.533 0.438084 119.746 0.381453 119.99 0.364028C120.243 0.346603 120.513 0.337891 120.8 0.337891C121.088 0.337891 121.384 0.350959 121.689 0.377097C122.003 0.394522 122.303 0.44244 122.591 0.520853C122.878 0.590552 123.14 0.699458 123.375 0.84757C123.61 0.98697 123.802 1.17864 123.95 1.42259C124.046 1.58813 124.128 1.76238 124.198 1.94534C124.268 2.11959 124.333 2.2982 124.394 2.48116C124.455 2.66412 124.516 2.84708 124.577 3.03004C124.638 3.20429 124.717 3.37419 124.812 3.53972C124.856 3.61814 124.886 3.70526 124.904 3.8011C124.93 3.88822 124.952 3.9797 124.969 4.07554C124.995 4.16266 125.022 4.24979 125.048 4.33691C125.074 4.41533 125.113 4.49374 125.165 4.57215C125.226 4.64185 125.296 4.71591 125.374 4.79432C125.461 4.86402 125.527 4.94243 125.57 5.02956C125.649 5.2038 125.701 5.38677 125.727 5.57844C125.762 5.7614 125.793 5.94872 125.819 6.1404C125.845 6.32336 125.871 6.51068 125.897 6.70235C125.932 6.88531 125.989 7.06392 126.067 7.23817C126.119 7.34272 126.167 7.42984 126.211 7.49954C126.263 7.56924 126.307 7.63894 126.341 7.70864C126.385 7.76963 126.42 7.84368 126.446 7.93081C126.481 8.00922 126.507 8.11377 126.524 8.24446C126.542 8.43613 126.559 8.62781 126.577 8.81948C126.594 9.00244 126.638 9.1854 126.707 9.36837C126.76 9.49905 126.829 9.62103 126.916 9.73429C127.004 9.84755 127.091 9.96081 127.178 10.0741C127.274 10.1786 127.365 10.2875 127.452 10.4008C127.539 10.5141 127.605 10.6404 127.648 10.7798C127.735 11.0412 127.818 11.2851 127.897 11.5116C127.975 11.7382 128.128 11.9385 128.354 12.1128C128.302 12.1912 128.254 12.2783 128.21 12.3742C128.175 12.4613 128.158 12.5528 128.158 12.6486C128.158 12.8316 128.202 13.0145 128.289 13.1975C128.385 13.3717 128.467 13.5416 128.537 13.7072C128.589 13.8379 128.642 13.9511 128.694 14.047C128.755 14.1428 128.855 14.2256 128.994 14.2953C129.116 14.3563 129.199 14.4129 129.243 14.4652C129.286 14.5087 129.312 14.561 129.321 14.622C129.33 14.6743 129.33 14.7396 129.321 14.818C129.321 14.8877 129.334 14.9792 129.36 15.0925C129.369 15.1447 129.386 15.2101 129.413 15.2885C129.439 15.3582 129.469 15.4322 129.504 15.5107C129.548 15.5804 129.596 15.6413 129.648 15.6936C129.7 15.7459 129.757 15.772 129.818 15.772C129.87 15.772 129.909 15.7546 129.935 15.7198C129.961 15.6762 129.983 15.6283 130.001 15.576C130.018 15.5237 130.027 15.4714 130.027 15.4192C130.036 15.3582 130.04 15.3103 130.04 15.2754C130.04 15.1534 130.07 15.0445 130.131 14.9487C130.201 14.8442 130.236 14.7265 130.236 14.5958C130.236 14.4477 130.201 14.3127 130.131 14.1907C130.07 14.0687 130.04 13.9337 130.04 13.7856C130.04 13.6636 130.062 13.5547 130.105 13.4589C130.158 13.3543 130.184 13.2411 130.184 13.1191C130.184 13.032 130.149 12.9579 130.079 12.8969C130.018 12.8359 129.988 12.7749 129.988 12.714C129.988 12.6878 130.001 12.6747 130.027 12.6747C130.053 12.666 130.079 12.6573 130.105 12.6486C130.131 12.6399 130.158 12.6268 130.184 12.6094C130.21 12.5833 130.223 12.5397 130.223 12.4787C130.223 12.2696 130.197 12.0692 130.144 11.8776C130.101 11.6772 130.049 11.4768 129.988 11.2764C129.927 11.076 129.87 10.8756 129.818 10.6752C129.774 10.4661 129.752 10.257 129.752 10.0479C129.752 9.83884 129.796 9.65588 129.883 9.49905C129.97 9.34223 130.014 9.23768 130.014 9.1854C130.014 9.07214 129.983 8.97195 129.922 8.88482C129.87 8.78899 129.844 8.68444 129.844 8.57117C129.844 8.44049 129.874 8.31851 129.935 8.20525C130.005 8.08328 130.04 7.95695 130.04 7.82626C130.04 7.74785 130.022 7.67379 129.988 7.60409C129.953 7.52568 129.914 7.44727 129.87 7.36885C129.826 7.29044 129.783 7.21203 129.739 7.13362C129.704 7.04649 129.678 6.96372 129.661 6.88531C129.635 6.75462 129.617 6.61958 129.609 6.48018C129.609 6.34078 129.609 6.20138 129.609 6.06198V5.50003C129.609 5.26479 129.596 5.03827 129.569 4.82046C129.552 4.59393 129.513 4.36741 129.452 4.14088C129.4 3.93178 129.369 3.74011 129.36 3.56586C129.352 3.39161 129.325 3.23914 129.282 3.10846C129.238 2.97777 129.156 2.87322 129.034 2.79481C128.912 2.70768 128.711 2.65541 128.432 2.63798C128.232 2.62056 128.032 2.61185 127.831 2.61185C127.631 2.60313 127.431 2.57264 127.23 2.52036C127.099 2.48551 126.999 2.41146 126.93 2.2982C126.869 2.18493 126.825 2.0586 126.799 1.9192C126.773 1.7798 126.76 1.6404 126.76 1.50101C126.76 1.35289 126.76 1.23528 126.76 1.14815C126.76 0.982614 126.838 0.84757 126.995 0.743021C127.16 0.629759 127.352 0.538278 127.57 0.468578C127.796 0.398878 128.023 0.350959 128.249 0.324822C128.476 0.289972 128.65 0.272547 128.772 0.272547C128.851 0.272547 128.99 0.276903 129.19 0.285616C129.391 0.294328 129.613 0.311753 129.857 0.337891C130.101 0.364028 130.354 0.398878 130.615 0.44244C130.876 0.47729 131.116 0.529565 131.334 0.599265C131.552 0.660252 131.73 0.734308 131.87 0.821433C132.009 0.908558 132.079 1.00875 132.079 1.12201C132.157 1.03489 132.244 0.960832 132.34 0.899845C132.436 0.838858 132.545 0.808364 132.667 0.808364C132.78 0.808364 132.885 0.843214 132.98 0.912914C133.085 0.973901 133.172 1.05667 133.242 1.16122C133.311 1.26577 133.364 1.37903 133.399 1.50101C133.442 1.61427 133.464 1.72317 133.464 1.82772ZM121.114 18.1113C121.114 18.0329 121.092 17.9763 121.049 17.9414C121.005 17.8979 120.948 17.8674 120.879 17.85C120.818 17.8325 120.752 17.8151 120.683 17.7977C120.622 17.7715 120.574 17.7367 120.539 17.6931C120.53 17.7193 120.522 17.7454 120.513 17.7715C120.513 17.789 120.513 17.8107 120.513 17.8369C120.513 17.9153 120.535 17.9763 120.578 18.0198C120.622 18.0547 120.674 18.0808 120.735 18.0983C120.805 18.1157 120.87 18.1375 120.931 18.1636C120.992 18.181 121.044 18.2115 121.088 18.2551C121.097 18.2289 121.101 18.2072 121.101 18.1897C121.11 18.1636 121.114 18.1375 121.114 18.1113ZM147.774 16.2686C147.774 16.5039 147.735 16.7043 147.657 16.8698C147.587 17.0353 147.491 17.1835 147.369 17.3141C147.256 17.4448 147.121 17.5668 146.964 17.6801C146.816 17.7933 146.663 17.9153 146.506 18.046C146.384 18.1505 146.276 18.2289 146.18 18.2812C146.084 18.3335 145.988 18.3771 145.892 18.4119C145.805 18.4468 145.709 18.4816 145.605 18.5165C145.509 18.5513 145.396 18.5992 145.265 18.6602C145.091 18.7473 144.943 18.8301 144.821 18.9085C144.707 18.9782 144.59 19.0436 144.468 19.1045C144.354 19.1655 144.228 19.2135 144.089 19.2483C143.949 19.2919 143.775 19.3267 143.566 19.3529C143.217 19.3964 142.865 19.4487 142.507 19.5097C142.159 19.5707 141.81 19.6012 141.462 19.6012C141.392 19.6012 141.318 19.5837 141.24 19.5489C141.17 19.5227 141.087 19.4923 140.991 19.4574C140.896 19.4313 140.787 19.4008 140.665 19.3659C140.551 19.3398 140.412 19.3267 140.247 19.3267C140.072 19.3267 139.933 19.3006 139.828 19.2483C139.724 19.196 139.628 19.135 139.541 19.0653C139.462 18.9956 139.38 18.9216 139.293 18.8432C139.205 18.7561 139.092 18.682 138.953 18.621C138.43 18.3858 137.986 18.1026 137.62 17.7715C137.254 17.4405 136.94 17.0702 136.679 16.6607C136.417 16.2512 136.2 15.8069 136.025 15.3277C135.851 14.8485 135.703 14.3475 135.581 13.8248C135.485 13.4589 135.437 13.0929 135.437 12.727C135.437 12.2478 135.551 11.8035 135.777 11.394C135.69 11.1501 135.646 10.9148 135.646 10.6883C135.646 10.5228 135.694 10.2788 135.79 9.95646C135.886 9.62538 136.008 9.29431 136.156 8.96324C136.313 8.63216 136.478 8.33594 136.653 8.07456C136.836 7.80448 137.006 7.63894 137.162 7.57795C137.284 7.53439 137.367 7.49954 137.411 7.4734C137.463 7.43855 137.489 7.35143 137.489 7.21203C137.489 7.10748 137.528 7.02035 137.607 6.95065C137.694 6.88096 137.794 6.82432 137.907 6.78076C138.029 6.7372 138.147 6.69799 138.26 6.66314C138.382 6.62829 138.482 6.59344 138.561 6.55859C138.883 6.40177 139.188 6.27108 139.475 6.16653C139.772 6.05327 140.064 5.96179 140.351 5.89209C140.647 5.81368 140.952 5.75705 141.266 5.7222C141.58 5.68735 141.915 5.66992 142.272 5.66992C142.464 5.66992 142.651 5.69606 142.834 5.74833C143.017 5.80061 143.191 5.87031 143.357 5.95743C143.531 6.03585 143.701 6.12733 143.867 6.23188C144.032 6.32771 144.193 6.42355 144.35 6.51939H144.337C144.468 6.53681 144.59 6.57602 144.703 6.63701C144.825 6.68928 144.951 6.72413 145.082 6.74156C145.204 6.88967 145.361 7.03342 145.552 7.17282C145.753 7.30351 145.945 7.44291 146.127 7.59102C146.319 7.73913 146.48 7.90031 146.611 8.07456C146.75 8.2401 146.82 8.43177 146.82 8.64959C146.82 8.68444 146.816 8.71929 146.807 8.75414C146.807 8.78899 146.803 8.82819 146.794 8.87175L146.846 8.80641C146.881 8.83255 146.912 8.87611 146.938 8.9371C146.973 8.99809 147.003 9.06779 147.029 9.1462C147.055 9.2159 147.077 9.28995 147.095 9.36837C147.112 9.43806 147.125 9.4947 147.134 9.53826C147.203 9.65152 147.295 9.743 147.408 9.8127C147.53 9.8824 147.626 9.97824 147.696 10.1002C147.609 10.1873 147.565 10.3006 147.565 10.44C147.565 10.5881 147.596 10.7362 147.657 10.8843C147.717 11.0237 147.748 11.1675 147.748 11.3156C147.748 11.4899 147.739 11.6597 147.722 11.8253C147.704 11.9821 147.696 12.1476 147.696 12.3219C147.696 12.4526 147.643 12.5528 147.539 12.6225C147.443 12.6922 147.334 12.7532 147.212 12.8054C147.099 12.8577 146.994 12.91 146.899 12.9623C146.803 13.0145 146.755 13.0886 146.755 13.1844C146.755 13.2541 146.711 13.289 146.624 13.289C146.546 13.2803 146.48 13.2759 146.428 13.2759C146.045 13.2759 145.661 13.228 145.278 13.1322C144.903 13.0363 144.529 12.9884 144.154 12.9884C143.745 12.9884 143.339 13.0189 142.939 13.0799C142.538 13.1322 142.133 13.1583 141.723 13.1583C141.418 13.1583 141.113 13.1496 140.809 13.1322C140.512 13.1147 140.212 13.106 139.907 13.106C139.828 13.106 139.68 13.1234 139.462 13.1583C139.245 13.1844 139.014 13.2236 138.77 13.2759C138.535 13.3195 138.308 13.3761 138.09 13.4458C137.872 13.5068 137.72 13.5678 137.633 13.6288C137.624 13.6723 137.62 13.7333 137.62 13.8117C137.62 14.2212 137.737 14.6438 137.973 15.0794C138.217 15.515 138.535 15.9114 138.927 16.2686C139.319 16.6259 139.759 16.9221 140.247 17.1573C140.734 17.3925 141.227 17.5102 141.723 17.5102C142.011 17.5102 142.294 17.5232 142.573 17.5494C142.86 17.5668 143.139 17.6278 143.409 17.7323C143.644 17.6191 143.858 17.4884 144.05 17.3403C144.25 17.1922 144.442 17.0353 144.625 16.8698C144.808 16.7043 144.986 16.5344 145.16 16.3601C145.335 16.1859 145.513 16.0116 145.696 15.8374C145.731 15.8025 145.814 15.772 145.945 15.7459C146.084 15.711 146.232 15.6849 146.389 15.6675C146.546 15.6413 146.694 15.6239 146.833 15.6152C146.981 15.5978 147.081 15.5891 147.134 15.5891C147.334 15.5891 147.521 15.6196 147.696 15.6805C147.748 15.8809 147.774 16.077 147.774 16.2686ZM145.814 10.9627C145.814 10.8321 145.792 10.7057 145.748 10.5838C145.705 10.4618 145.67 10.3354 145.644 10.2048C145.6 9.96081 145.579 9.72558 145.579 9.49905C145.579 9.26382 145.544 9.02858 145.474 8.79334H145.461C145.461 8.84562 145.444 8.89789 145.409 8.95017C145.374 8.99373 145.326 9.01551 145.265 9.01551C145.16 9.01551 145.06 8.98937 144.964 8.9371C144.869 8.88482 144.786 8.81948 144.716 8.74107C144.385 8.59296 144.084 8.45356 143.814 8.32287C143.553 8.19218 143.287 8.07892 143.017 7.98308C142.756 7.87853 142.473 7.80012 142.168 7.74785C141.871 7.68686 141.527 7.65636 141.135 7.65636C141.1 7.65636 141.066 7.66072 141.031 7.66943C141.005 7.66943 140.978 7.6825 140.952 7.70864L141.018 7.8524L140.913 7.87853C140.678 7.9221 140.482 7.96566 140.325 8.00922C140.177 8.04407 140.042 8.09634 139.92 8.16604C139.798 8.23574 139.676 8.32287 139.554 8.42742C139.441 8.52326 139.293 8.64959 139.11 8.80641C139.022 8.88482 138.927 8.94581 138.822 8.98937C138.726 9.02422 138.626 9.05907 138.521 9.09392C138.426 9.12006 138.33 9.15055 138.234 9.1854C138.147 9.22025 138.073 9.27688 138.012 9.3553C137.951 9.57311 137.859 9.78656 137.737 9.99566C137.624 10.196 137.567 10.4095 137.567 10.636C137.567 10.7667 137.62 10.8843 137.724 10.9889C137.838 11.0847 137.977 11.1675 138.142 11.2372C138.317 11.3069 138.504 11.3679 138.704 11.4202C138.914 11.4724 139.118 11.5116 139.319 11.5378C139.519 11.5639 139.702 11.5857 139.868 11.6031C140.042 11.6118 140.177 11.6162 140.273 11.6162C140.604 11.6162 140.93 11.5857 141.253 11.5247C141.575 11.455 141.902 11.4202 142.233 11.4202C142.573 11.4202 142.913 11.4376 143.252 11.4724C143.592 11.4986 143.932 11.5116 144.272 11.5116C144.359 11.5116 144.49 11.5073 144.664 11.4986C144.838 11.4899 145.008 11.4681 145.173 11.4332C145.348 11.3897 145.496 11.333 145.618 11.2633C145.748 11.1849 145.814 11.0847 145.814 10.9627ZM166.946 6.98986C166.946 7.26866 166.854 7.48647 166.671 7.6433C166.497 7.80012 166.288 7.93516 166.044 8.04843C165.8 8.16169 165.548 8.27495 165.286 8.38821C165.034 8.49276 164.833 8.63652 164.685 8.81948C164.432 9.12442 164.249 9.48163 164.136 9.89111C164.032 10.3006 163.949 10.7275 163.888 11.1718C163.836 11.6162 163.788 12.0605 163.744 12.5049C163.709 12.9492 163.635 13.3587 163.522 13.7333C163.478 13.864 163.457 14.0165 163.457 14.1907C163.457 14.3563 163.448 14.5218 163.43 14.6873C163.422 14.8442 163.387 14.9923 163.326 15.1317C163.265 15.2624 163.156 15.3582 162.999 15.4192C162.956 15.4366 162.903 15.4584 162.842 15.4845C162.781 15.5107 162.751 15.5499 162.751 15.6021C162.751 15.6631 162.777 15.711 162.829 15.7459C162.882 15.7807 162.934 15.8156 162.986 15.8504C163.047 15.8766 163.104 15.9158 163.156 15.9681C163.208 16.0116 163.234 16.077 163.234 16.1641C163.234 16.3383 163.208 16.5126 163.156 16.6868C163.112 16.8611 163.06 17.0353 162.999 17.2096C162.947 17.3838 162.895 17.5668 162.842 17.7585C162.799 17.9414 162.777 18.1375 162.777 18.3466C162.777 18.4773 162.76 18.5731 162.725 18.6341C162.699 18.6951 162.659 18.743 162.607 18.7778C162.555 18.8127 162.489 18.8432 162.411 18.8693C162.333 18.8867 162.246 18.9259 162.15 18.9869C162.063 19.0392 161.971 19.0871 161.875 19.1307C161.788 19.1742 161.688 19.196 161.575 19.196C161.479 19.196 161.383 19.1742 161.287 19.1307C161.191 19.0871 161.091 19.0392 160.987 18.9869C160.891 18.9259 160.791 18.8693 160.686 18.817C160.59 18.7561 160.494 18.7125 160.399 18.6864C160.329 18.4163 160.259 18.1941 160.189 18.0198C160.128 17.8456 160.067 17.6931 160.006 17.5624C159.954 17.4318 159.906 17.3098 159.863 17.1965C159.819 17.0833 159.78 16.9526 159.745 16.8045C159.71 16.6476 159.684 16.4647 159.667 16.2556C159.649 16.0465 159.641 15.7764 159.641 15.4453C159.641 15.2972 159.627 15.1534 159.601 15.014C159.575 14.8659 159.523 14.7309 159.444 14.6089C159.296 14.3824 159.179 14.1472 159.092 13.9032C159.013 13.6593 158.952 13.4153 158.909 13.1714C158.865 12.9187 158.83 12.666 158.804 12.4134C158.787 12.152 158.765 11.8906 158.739 11.6293C158.73 11.5683 158.721 11.4811 158.713 11.3679C158.704 11.2546 158.682 11.1414 158.647 11.0281C158.621 10.9148 158.578 10.819 158.517 10.7406C158.464 10.6622 158.39 10.623 158.294 10.623C158.199 10.623 158.094 10.6665 157.981 10.7536C157.876 10.8321 157.754 10.9235 157.615 11.0281C157.475 11.1239 157.314 11.2154 157.131 11.3025C156.948 11.3809 156.735 11.4202 156.491 11.4202C156.578 11.5247 156.665 11.5944 156.752 11.6293C156.839 11.6641 156.944 11.6902 157.066 11.7077C157.188 11.7338 157.275 11.7687 157.327 11.8122C157.388 11.8558 157.432 11.908 157.458 11.969C157.493 12.03 157.519 12.0997 157.536 12.1781C157.563 12.2565 157.602 12.3393 157.654 12.4264C157.741 12.5746 157.785 12.7357 157.785 12.91C157.785 13.1539 157.732 13.3979 157.628 13.6418C157.523 13.8771 157.406 14.0949 157.275 14.2953C157.188 14.4347 157.127 14.5828 157.092 14.7396C157.066 14.8964 157.044 15.0533 157.027 15.2101C157.018 15.3669 157.005 15.5237 156.988 15.6805C156.97 15.8374 156.927 15.9898 156.857 16.138C156.831 16.1989 156.792 16.2861 156.739 16.3993C156.687 16.5039 156.661 16.591 156.661 16.6607C156.661 16.6868 156.67 16.7217 156.687 16.7653C156.713 16.8088 156.739 16.8611 156.765 16.9221C156.8 16.9744 156.826 17.0353 156.844 17.105C156.87 17.166 156.883 17.2227 156.883 17.2749C156.883 17.3621 156.861 17.4622 156.818 17.5755C156.774 17.6801 156.722 17.7933 156.661 17.9153C156.609 18.0286 156.552 18.1418 156.491 18.2551C156.439 18.3683 156.399 18.4729 156.373 18.5687C156.321 18.7343 156.247 18.865 156.151 18.9608C156.064 19.0479 155.955 19.1133 155.824 19.1568C155.702 19.2004 155.567 19.2265 155.419 19.2352C155.28 19.2439 155.141 19.2483 155.001 19.2483C154.748 19.2483 154.552 19.2352 154.413 19.2091C154.274 19.1917 154.165 19.1438 154.086 19.0653C154.017 18.9956 153.96 18.8911 153.916 18.7517C153.882 18.6123 153.838 18.4293 153.786 18.2028C153.733 17.9937 153.677 17.7846 153.616 17.5755C153.564 17.3664 153.537 17.153 153.537 16.9351C153.537 16.6999 153.59 16.4777 153.694 16.2686C153.625 16.1554 153.564 16.0247 153.511 15.8766C153.459 15.7285 153.394 15.6108 153.315 15.5237C153.228 15.4279 153.137 15.3364 153.041 15.2493C152.945 15.1534 152.854 15.0576 152.766 14.9618C152.775 14.8659 152.779 14.7788 152.779 14.7004C152.779 14.6133 152.779 14.5218 152.779 14.426C152.779 13.7202 152.705 12.9971 152.557 12.2565C152.409 11.5073 152.231 10.7929 152.021 10.1133C151.926 9.83448 151.821 9.56004 151.708 9.28995C151.595 9.01987 151.512 8.73671 151.46 8.44049C151.364 8.44049 151.272 8.44049 151.185 8.44049C151.098 8.43177 151.006 8.42742 150.911 8.42742C150.832 8.42742 150.767 8.4492 150.715 8.49276C150.662 8.53632 150.606 8.58424 150.545 8.63652C150.492 8.68879 150.431 8.73671 150.362 8.78027C150.301 8.82384 150.227 8.84562 150.14 8.84562C150.009 8.84562 149.878 8.80205 149.748 8.71493C149.626 8.62781 149.512 8.52326 149.408 8.40128C149.312 8.27059 149.233 8.13555 149.172 7.99615C149.111 7.84804 149.081 7.713 149.081 7.59102C149.081 7.42548 149.125 7.25995 149.212 7.09441C149.308 6.92887 149.425 6.78076 149.565 6.65007C149.713 6.51068 149.874 6.40177 150.048 6.32336C150.222 6.23623 150.388 6.19267 150.545 6.19267C150.745 6.19267 150.937 6.23188 151.12 6.31029C151.303 6.3887 151.494 6.42791 151.695 6.42791C151.852 6.42791 152.008 6.41919 152.165 6.40177C152.322 6.37563 152.483 6.36256 152.649 6.36256C152.884 6.36256 153.119 6.37128 153.354 6.3887C153.59 6.40613 153.825 6.41484 154.06 6.41484C154.182 6.41484 154.3 6.44533 154.413 6.50632C154.526 6.55859 154.635 6.62394 154.74 6.70235C154.844 6.77205 154.949 6.85046 155.053 6.93759C155.158 7.016 155.263 7.08134 155.367 7.13362C155.358 7.32529 155.31 7.4734 155.223 7.57795C155.145 7.67379 155.04 7.75656 154.91 7.82626C154.788 7.88725 154.653 7.94823 154.505 8.00922C154.365 8.07021 154.234 8.15733 154.112 8.27059C153.999 8.37514 153.899 8.52326 153.812 8.71493C153.733 8.89789 153.694 9.1462 153.694 9.45985C153.694 9.84319 153.786 10.183 153.969 10.4792C154.012 10.5576 154.034 10.6578 154.034 10.7798C154.034 10.8756 154.025 10.9758 154.008 11.0804C153.99 11.1762 153.982 11.2677 153.982 11.3548C153.982 11.4594 154.008 11.5421 154.06 11.6031C154.191 11.7599 154.269 11.9647 154.295 12.2173C154.33 12.4613 154.356 12.714 154.374 12.9753C154.4 13.2367 154.435 13.485 154.478 13.7202C154.531 13.9468 154.64 14.1123 154.805 14.2169H154.897C155.132 14.2169 155.302 14.1297 155.406 13.9555C155.52 13.7812 155.598 13.5765 155.641 13.3413C155.685 13.0973 155.707 12.849 155.707 12.5963C155.716 12.3437 155.729 12.1389 155.746 11.9821C155.885 11.8601 155.994 11.6815 156.073 11.4463C156.151 11.2023 156.212 10.9453 156.256 10.6752C156.299 10.4051 156.325 10.1394 156.334 9.87804C156.352 9.60796 156.36 9.38579 156.36 9.21154C156.36 8.94145 156.325 8.72364 156.256 8.55811C156.195 8.38386 156.121 8.23574 156.034 8.11377C155.955 7.9918 155.881 7.87853 155.811 7.77398C155.75 7.66072 155.72 7.52568 155.72 7.36885C155.72 7.18589 155.82 7.02907 156.02 6.89838C156.23 6.75898 156.478 6.65007 156.765 6.57166C157.053 6.48454 157.345 6.42355 157.641 6.3887C157.937 6.34514 158.177 6.32336 158.36 6.32336C158.49 6.32336 158.578 6.32771 158.621 6.33643C158.673 6.33643 158.708 6.34078 158.726 6.34949C158.726 6.27979 158.808 6.24494 158.974 6.24494C159.105 6.24494 159.266 6.26237 159.458 6.29722C159.649 6.33207 159.841 6.37128 160.033 6.41484C160.224 6.44969 160.403 6.48454 160.568 6.51939C160.734 6.55424 160.856 6.57166 160.934 6.57166C161.187 6.57166 161.444 6.53681 161.705 6.46711C161.975 6.39741 162.224 6.31029 162.45 6.20574C162.799 6.04891 163.147 5.94436 163.496 5.89209C163.853 5.8311 164.219 5.80061 164.594 5.80061C164.794 5.80061 165.029 5.82239 165.299 5.86595C165.569 5.90951 165.826 5.97921 166.07 6.07505C166.323 6.16218 166.532 6.27108 166.698 6.40177C166.872 6.53246 166.959 6.68057 166.959 6.84611C166.959 6.88096 166.955 6.91145 166.946 6.93759C166.946 6.96372 166.946 6.98115 166.946 6.98986ZM159.601 7.39499C159.601 7.31658 159.562 7.25995 159.484 7.2251C159.414 7.18154 159.349 7.15104 159.288 7.13362C159.279 7.22945 159.248 7.30787 159.196 7.36885C159.153 7.42113 159.122 7.48647 159.105 7.56488C159.122 7.58231 159.131 7.6128 159.131 7.65636C159.131 7.67379 159.153 7.6825 159.196 7.6825C159.248 7.67379 159.305 7.66072 159.366 7.6433C159.427 7.61716 159.479 7.58231 159.523 7.53875C159.575 7.49518 159.601 7.44727 159.601 7.39499ZM162.633 8.81948C162.52 8.68008 162.372 8.54504 162.189 8.41435C162.006 8.27495 161.814 8.15298 161.614 8.04843C161.422 7.94388 161.239 7.86111 161.065 7.80012C160.891 7.73913 160.751 7.70864 160.647 7.70864C160.629 7.70864 160.599 7.73478 160.555 7.78705C160.512 7.83061 160.459 7.88725 160.399 7.95695C160.346 8.01793 160.285 8.07892 160.216 8.13991C160.146 8.19218 160.085 8.23139 160.033 8.25753C160.033 8.68444 160.024 9.11135 160.006 9.53826C159.998 9.95646 159.993 10.379 159.993 10.8059C159.993 11.0237 160.011 11.2285 160.046 11.4202C160.089 11.6031 160.185 11.7817 160.333 11.956C160.403 12.0431 160.468 12.1825 160.529 12.3742C160.599 12.5571 160.669 12.7444 160.738 12.9361C160.817 13.1278 160.904 13.2977 161 13.4458C161.095 13.5852 161.204 13.6549 161.326 13.6549C161.483 13.6549 161.614 13.5547 161.718 13.3543C161.832 13.1539 161.928 12.8969 162.006 12.5833C162.084 12.2696 162.15 11.9211 162.202 11.5378C162.254 11.1544 162.302 10.7841 162.346 10.4269C162.389 10.0697 162.433 9.74736 162.476 9.45985C162.52 9.16362 162.572 8.95017 162.633 8.81948ZM179.949 15.001C179.949 15.1142 179.927 15.2275 179.884 15.3408C179.849 15.4453 179.806 15.5542 179.753 15.6675C179.701 15.772 179.649 15.8766 179.596 15.9811C179.553 16.0857 179.522 16.1946 179.505 16.3078C179.461 16.5431 179.37 16.7565 179.231 16.9482C179.1 17.1312 178.947 17.3054 178.773 17.471C178.599 17.6365 178.416 17.7977 178.224 17.9545C178.033 18.1026 177.863 18.2551 177.715 18.4119C177.584 18.5426 177.444 18.6079 177.296 18.6079C177.209 18.6079 177.126 18.5992 177.048 18.5818C176.97 18.5644 176.887 18.5557 176.8 18.5557C176.678 18.5557 176.578 18.5774 176.499 18.621C176.429 18.6646 176.36 18.7125 176.29 18.7648C176.229 18.8083 176.151 18.8519 176.055 18.8955C175.968 18.939 175.846 18.9608 175.689 18.9608C175.576 18.9608 175.467 18.9913 175.362 19.0523C175.258 19.1133 175.153 19.1438 175.049 19.1438C174.9 19.1438 174.726 19.1002 174.526 19.0131C174.334 18.9259 174.121 18.8824 173.885 18.8824C173.737 18.8824 173.589 18.8911 173.441 18.9085C173.293 18.9172 173.145 18.9216 172.997 18.9216C172.866 18.9216 172.735 18.9042 172.605 18.8693C172.483 18.8258 172.361 18.7822 172.239 18.7386C172.125 18.6864 172.008 18.6428 171.886 18.6079C171.764 18.5644 171.638 18.5426 171.507 18.5426C171.246 18.5426 171.023 18.6079 170.84 18.7386C170.657 18.8693 170.492 19.0131 170.344 19.1699C170.204 19.3354 170.061 19.4835 169.913 19.6142C169.773 19.7449 169.612 19.8103 169.429 19.8103C169.263 19.8103 169.15 19.7798 169.089 19.7188C169.037 19.6665 169.002 19.6012 168.985 19.5227C168.976 19.4443 168.967 19.3572 168.959 19.2614C168.95 19.1742 168.911 19.0958 168.841 19.0261C168.71 18.8867 168.623 18.7604 168.58 18.6471C168.536 18.5252 168.514 18.3683 168.514 18.1767C168.514 17.7585 168.549 17.3533 168.619 16.9613C168.697 16.5605 168.736 16.151 168.736 15.7328C168.736 15.5847 168.719 15.441 168.684 15.3016C168.649 15.1622 168.606 15.0358 168.553 14.9226C168.51 14.8093 168.471 14.7135 168.436 14.6351C168.401 14.5566 168.383 14.5 168.383 14.4652C168.383 14.3867 168.405 14.304 168.449 14.2169C168.492 14.1297 168.54 14.0513 168.593 13.9816C168.654 13.9032 168.715 13.8422 168.776 13.7987C168.845 13.7464 168.902 13.7202 168.945 13.7202C169.033 13.7202 169.107 13.742 169.168 13.7856C169.237 13.8291 169.303 13.8771 169.364 13.9293C169.433 13.9729 169.499 14.0165 169.56 14.06C169.629 14.1036 169.712 14.1254 169.808 14.1254C169.825 14.1254 169.838 14.1254 169.847 14.1254C169.856 14.1167 169.869 14.1123 169.886 14.1123C170.008 14.3127 170.104 14.5305 170.174 14.7657C170.244 14.9923 170.313 15.2188 170.383 15.4453C170.461 15.6631 170.553 15.8766 170.657 16.0857C170.771 16.2861 170.928 16.4647 171.128 16.6215C171.18 16.6651 171.241 16.713 171.311 16.7653C171.381 16.8175 171.45 16.8698 171.52 16.9221C171.598 16.9744 171.672 17.0179 171.742 17.0528C171.821 17.0876 171.89 17.105 171.951 17.105C172.047 17.105 172.139 17.0963 172.226 17.0789C172.322 17.0615 172.417 17.0528 172.513 17.0528C172.644 17.0528 172.709 17.0963 172.709 17.1835C172.709 17.2009 172.701 17.2357 172.683 17.288H172.84H172.931C173.262 17.288 173.594 17.2488 173.925 17.1704C174.256 17.092 174.591 17.0528 174.931 17.0528C175.088 17.0528 175.245 17.0702 175.401 17.105C175.567 17.1312 175.715 17.1922 175.846 17.288C176.011 17.2096 176.151 17.1094 176.264 16.9874C176.377 16.8654 176.49 16.7478 176.604 16.6346C176.717 16.5126 176.843 16.408 176.983 16.3209C177.122 16.2251 177.301 16.1728 177.519 16.1641C177.562 16.1118 177.584 16.0508 177.584 15.9811C177.593 15.9114 177.597 15.8461 177.597 15.7851C177.597 15.7154 177.601 15.6501 177.61 15.5891C177.627 15.5281 177.662 15.4714 177.715 15.4192C177.802 15.3408 177.867 15.2624 177.911 15.1839C177.963 15.0968 177.989 14.9923 177.989 14.8703C177.989 14.6351 177.924 14.4172 177.793 14.2169C177.662 14.0078 177.492 13.8204 177.283 13.6549C177.083 13.4807 176.848 13.3282 176.578 13.1975C176.316 13.0581 176.046 12.9405 175.767 12.8446C175.497 12.7488 175.236 12.6791 174.983 12.6355C174.731 12.5833 174.508 12.5571 174.317 12.5571C174.099 12.5571 173.881 12.5789 173.663 12.6225C173.454 12.6573 173.249 12.7227 173.049 12.8185C173.049 12.6268 173.005 12.5005 172.918 12.4395C172.831 12.3785 172.727 12.335 172.605 12.3088C172.483 12.2827 172.356 12.2478 172.226 12.2043C172.104 12.152 172.008 12.0431 171.938 11.8776C171.79 12.0692 171.603 12.2086 171.376 12.2958C171.158 12.3829 170.936 12.4264 170.71 12.4264C170.483 12.4264 170.274 12.3829 170.082 12.2958C169.891 12.2086 169.716 12.091 169.56 11.9429C169.412 11.7948 169.29 11.6249 169.194 11.4332C169.107 11.2415 169.059 11.0368 169.05 10.819C169.041 10.6709 169.011 10.5402 168.959 10.4269C168.906 10.3137 168.85 10.2048 168.789 10.1002C168.728 9.99566 168.671 9.88676 168.619 9.7735C168.575 9.66023 168.553 9.52519 168.553 9.36837C168.553 8.9763 168.571 8.67137 168.606 8.45356C168.649 8.22703 168.701 8.05714 168.762 7.94388C168.823 7.8219 168.889 7.73913 168.959 7.69557C169.037 7.6433 169.115 7.59538 169.194 7.55182C169.272 7.49954 169.346 7.42984 169.416 7.34272C169.486 7.25559 169.542 7.11619 169.586 6.92452C169.612 6.79383 169.651 6.70671 169.703 6.66314C169.756 6.61958 169.847 6.58909 169.978 6.57166C170.091 6.55424 170.165 6.5281 170.2 6.49325C170.235 6.4584 170.257 6.41919 170.265 6.37563C170.283 6.33207 170.3 6.28851 170.318 6.24494C170.335 6.19267 170.379 6.14475 170.448 6.10119C170.631 5.97921 170.81 5.90516 170.984 5.87902C171.167 5.84417 171.354 5.82675 171.546 5.82675C171.659 5.82675 171.768 5.8311 171.873 5.83982C171.977 5.83982 172.091 5.83982 172.213 5.83982C172.579 5.83982 172.936 5.82239 173.284 5.78754C173.633 5.75269 173.99 5.73527 174.356 5.73527C174.635 5.73527 174.887 5.76576 175.114 5.82675C175.349 5.87902 175.554 5.94001 175.728 6.00971C175.902 6.07941 176.05 6.14475 176.172 6.20574C176.303 6.25801 176.408 6.28415 176.486 6.28415C176.634 6.28415 176.774 6.25801 176.904 6.20574C177.044 6.14475 177.187 6.1099 177.336 6.10119C177.405 6.16218 177.484 6.21881 177.571 6.27108C177.667 6.31464 177.762 6.33643 177.858 6.33643C177.928 6.33643 177.98 6.31464 178.015 6.27108C178.05 6.22752 178.072 6.17089 178.08 6.10119C178.202 6.13604 178.32 6.19703 178.433 6.28415C178.547 6.37128 178.647 6.47583 178.734 6.5978C178.83 6.71106 178.904 6.83739 178.956 6.97679C179.008 7.10748 179.034 7.23381 179.034 7.35578C179.034 7.67815 179.008 8.00051 178.956 8.32287C178.912 8.63652 178.891 8.95452 178.891 9.27688C178.891 9.60796 178.934 9.91725 179.021 10.2048C178.899 10.3006 178.764 10.3877 178.616 10.4661C178.477 10.5358 178.359 10.636 178.263 10.7667L178.25 10.7536C178.189 10.7014 178.111 10.636 178.015 10.5576C177.928 10.4705 177.832 10.3877 177.728 10.3093C177.632 10.2309 177.536 10.1656 177.44 10.1133C177.344 10.0523 177.257 10.0218 177.179 10.0218H177.153C177.109 9.99566 177.07 9.96517 177.035 9.93032C177.009 9.89547 176.996 9.85191 176.996 9.79963C176.996 9.71251 177.022 9.6341 177.074 9.5644C177.126 9.4947 177.153 9.41628 177.153 9.32916C177.153 9.30302 177.113 9.24203 177.035 9.1462C176.957 9.05036 176.865 8.95452 176.761 8.85869C176.665 8.75414 176.569 8.66266 176.473 8.58424C176.377 8.49712 176.307 8.4492 176.264 8.44049C176.177 8.42306 176.085 8.39257 175.989 8.34901C175.894 8.30544 175.798 8.26188 175.702 8.21832C175.606 8.17476 175.515 8.13555 175.428 8.1007C175.349 8.06585 175.284 8.04843 175.231 8.04843C175.118 8.04843 175.005 8.06585 174.892 8.1007C174.778 8.12684 174.661 8.14426 174.539 8.15298H174.552L173.964 8.08763C173.676 8.05278 173.393 7.98308 173.114 7.87853C172.836 7.77398 172.548 7.72171 172.252 7.72171C171.99 7.72171 171.799 7.7827 171.677 7.90467C171.555 8.02664 171.455 8.16604 171.376 8.32287C171.298 8.47098 171.219 8.60602 171.141 8.728C171.063 8.84997 170.932 8.91096 170.749 8.91096C170.697 8.91096 170.657 8.9066 170.631 8.89789C170.718 9.17669 170.797 9.41193 170.867 9.6036C170.945 9.79528 171.036 9.96953 171.141 10.1264C171.246 10.2745 171.376 10.4182 171.533 10.5576C171.69 10.6883 171.89 10.8321 172.134 10.9889C172.16 11.0063 172.195 11.0368 172.239 11.0804C172.291 11.1239 172.343 11.1718 172.396 11.2241C172.448 11.2677 172.496 11.3069 172.539 11.3417C172.592 11.3766 172.631 11.394 172.657 11.394C172.805 11.394 172.944 11.3592 173.075 11.2895C173.215 11.2198 173.358 11.1849 173.506 11.1849C173.611 11.1849 173.707 11.2111 173.794 11.2633C173.89 11.3069 173.99 11.3287 174.095 11.3287C174.199 11.3287 174.299 11.3112 174.395 11.2764C174.491 11.2328 174.595 11.2111 174.709 11.2111C174.752 11.2111 174.796 11.2154 174.839 11.2241C174.892 11.2328 174.94 11.2415 174.983 11.2503C175.245 11.32 175.506 11.3548 175.767 11.3548C176.029 11.3461 176.294 11.3461 176.564 11.3548C176.756 11.3548 176.948 11.3897 177.14 11.4594C177.34 11.5291 177.532 11.6205 177.715 11.7338C177.897 11.8384 178.067 11.9603 178.224 12.0997C178.381 12.2391 178.516 12.3829 178.629 12.531C178.716 12.653 178.812 12.7619 178.917 12.8577C179.021 12.9535 179.122 13.0537 179.217 13.1583C179.322 13.2541 179.413 13.3587 179.492 13.4719C179.57 13.5852 179.627 13.7159 179.662 13.864C179.705 14.0382 179.762 14.2299 179.832 14.439C179.91 14.6481 179.949 14.8354 179.949 15.001Z" fill="#49DE73"/>
</svg>
